<svg width="97" height="98" viewBox="0 0 97 98" fill="none" xmlns="http://www.w3.org/2000/svg">
<path d="M47.618 2.49345C46.5923 1.66147 45.7523 0.759671 45.7523 0.490379C45.7523 0.220255 47.7573 0 50.2077 0H54.6631L63.1933 14.1354C67.885 21.9091 71.93 28.063 72.1821 27.8103C72.4341 27.5576 76.2204 21.2907 80.5962 13.8835L88.5509 0.415575L92.8579 0.164568C97.6367 -0.114699 98.0397 0.270124 95.2983 2.49428C93.4541 3.99118 93.4325 4.24967 93.4325 24.5838C93.4325 40.305 93.6771 45.2412 94.469 45.5055C97.2942 46.4497 94.8696 47.3756 89.5725 47.3756H83.6394L85.2191 45.6277C86.6586 44.0343 86.8195 42.2083 87.0342 25.0567L87.2689 6.23363L78.742 20.5627C74.0519 28.4445 69.8826 34.8958 69.4763 34.9C69.0708 34.905 68.2432 34.2542 67.6371 33.4538C66.7117 32.232 66.5317 35.2906 66.5093 52.596C66.487 70.1549 66.6661 73.2642 67.7266 73.6715C70.5916 74.7736 68.5915 75.6347 63.1659 75.6347C59.9734 75.6347 57.373 75.3537 57.3879 75.0113C57.402 74.6689 57.9617 73.6615 58.6317 72.7747C59.5422 71.5678 59.849 68.6896 59.849 61.3464V51.5313L50.1057 51.5438C44.7464 51.5513 40.8383 51.8596 41.4204 52.2303C42.6402 53.0058 43.8683 61.5101 42.7579 61.4951C42.3525 61.4893 41.1891 60.1977 40.1724 58.6243C39.1566 57.0518 37.5703 55.3596 36.6482 54.8651C35.0138 53.9882 34.9724 54.1918 34.9724 63.0785C34.9724 70.0709 35.2618 72.4813 36.2162 73.4379C36.9003 74.1236 37.46 74.8983 37.46 75.1601C37.46 75.4211 34.848 75.6347 31.6555 75.6347C28.463 75.6347 25.8509 75.4211 25.8509 75.1601C25.8509 74.8983 26.4107 74.1236 27.0948 73.4379C28.0666 72.4638 28.3386 69.9355 28.3386 61.8617V51.5313H23.9081C8.24159 51.5313 0.834981 70.6212 10.3387 86.5069C13.9359 92.5187 19.0016 95.6355 26.0143 96.1508C30.3453 96.4691 31.8794 96.204 34.9657 94.604C38.2345 92.9093 41.5863 89.2547 42.6808 86.1919C43.5814 83.6711 44.1701 86.7579 43.5424 90.7101L42.8434 95.1093L38.2859 96.5422C32.5336 98.35 20.9577 98.5046 15.3928 96.8481C9.99208 95.2398 4.54907 90.4823 2.11364 85.2394C-0.89975 78.7531 -0.674202 70.0635 2.68249 63.3303C6.6188 55.4352 13.8032 50.7567 24.0905 49.3886L28.3386 48.8234V39.8902C28.3386 32.9626 28.0592 30.7235 27.0948 29.9214C24.7846 27.999 25.8294 27.428 31.6555 27.428C37.4816 27.428 38.5264 27.999 36.2162 29.9214C35.2502 30.7251 34.9724 32.9742 34.9724 39.9966V49.0379H47.4107H59.849V40.4695C59.849 34.2226 59.519 31.464 58.6317 30.2879C56.8224 27.8909 57.0479 27.5485 60.621 27.2675L63.8807 27.0124L57.9261 17.2838L51.9714 7.55516L51.7227 21.8551C51.4175 39.3932 51.8396 42.7909 54.6465 45.3983L56.7743 47.3756H52.0925C47.0716 47.3756 46.7042 47.1337 48.696 45.1373C49.7997 44.031 49.9456 41.0372 49.7325 23.928C49.4887 4.4159 49.4456 3.97539 47.618 2.49345Z" fill="#EEDBB3"/>
</svg>
