<svg width="97" height="116" viewBox="0 0 97 116" fill="none" xmlns="http://www.w3.org/2000/svg">
<path d="M47.618 2.49345C46.5923 1.66147 45.7523 0.759671 45.7523 0.490379C45.7523 0.220255 47.7573 0 50.2077 0H54.6631L63.1933 14.1354C67.885 21.9091 71.93 28.063 72.1821 27.8103C72.4341 27.5576 76.2204 21.2907 80.5962 13.8835L88.5509 0.415575L92.8579 0.164568C97.6367 -0.114699 98.0397 0.270124 95.2983 2.49428C93.4541 3.99118 93.4325 4.24967 93.4325 24.5838C93.4325 40.305 93.6771 45.2412 94.469 45.5055C97.2942 46.4497 94.8696 47.3756 89.5725 47.3756H83.6394L85.2191 45.6277C86.6586 44.0343 86.8195 42.2083 87.0342 25.0567L87.2689 6.23363L78.742 20.5627C74.0519 28.4445 69.8826 34.8958 69.4763 34.9C69.0708 34.905 68.2432 34.2542 67.6371 33.4538C66.7117 32.232 66.5317 35.2906 66.5093 52.596C66.487 70.1549 66.6661 73.2642 67.7266 73.6715C70.5916 74.7736 68.5915 75.6347 63.1659 75.6347C59.9734 75.6347 57.373 75.3537 57.3879 75.0113C57.402 74.6689 57.9617 73.6615 58.6317 72.7747C59.5422 71.5678 59.849 68.6896 59.849 61.3464V51.5313L50.1057 51.5438C44.7464 51.5513 40.8383 51.8596 41.4204 52.2303C42.6402 53.0058 43.8683 61.5101 42.7579 61.4951C42.3525 61.4893 41.1891 60.1977 40.1724 58.6243C39.1566 57.0518 37.5703 55.3596 36.6482 54.8651C35.0138 53.9882 34.9724 54.1918 34.9724 63.0785C34.9724 70.0709 35.2618 72.4813 36.2162 73.4379C36.9003 74.1236 37.46 74.8983 37.46 75.1601C37.46 75.4211 34.848 75.6347 31.6555 75.6347C28.463 75.6347 25.8509 75.4211 25.8509 75.1601C25.8509 74.8983 26.4107 74.1236 27.0948 73.4379C28.0666 72.4638 28.3386 69.9355 28.3386 61.8617V51.5313H23.9081C8.24159 51.5313 0.834981 70.6212 10.3387 86.5069C13.9359 92.5187 19.0016 95.6355 26.0143 96.1508C30.3453 96.4691 31.8794 96.204 34.9657 94.604C38.2345 92.9093 41.5863 89.2547 42.6808 86.1919C43.5814 83.6711 44.1701 86.7579 43.5424 90.7101L42.8434 95.1093L38.2859 96.5422C32.5336 98.35 20.9577 98.5046 15.3928 96.8481C9.99208 95.2398 4.54907 90.4823 2.11364 85.2394C-0.89975 78.7531 -0.674202 70.0635 2.68249 63.3303C6.6188 55.4352 13.8032 50.7567 24.0905 49.3886L28.3386 48.8234V39.8902C28.3386 32.9626 28.0592 30.7235 27.0948 29.9214C24.7846 27.999 25.8294 27.428 31.6555 27.428C37.4816 27.428 38.5264 27.999 36.2162 29.9214C35.2502 30.7251 34.9724 32.9742 34.9724 39.9966V49.0379H59.849V40.4695C59.849 34.2226 59.519 31.464 58.6317 30.2879C56.8224 27.8909 57.0479 27.5485 60.621 27.2675L63.8807 27.0124L51.9714 7.55516L51.7227 21.8551C51.4175 39.3932 51.8396 42.7909 54.6465 45.3983L56.7743 47.3756H52.0925C47.0716 47.3756 46.7042 47.1337 48.696 45.1373C49.7997 44.031 49.9456 41.0372 49.7325 23.928C49.4887 4.4159 49.4456 3.97539 47.618 2.49345Z" fill="#EEDBB3"/>
<path d="M6.2168 106.199C6.95117 106.23 7.875 106.246 8.98828 106.246L11.2559 112.387H11.2852L13.6465 106.246H14.3203C14.8047 106.246 15.4883 106.23 16.3711 106.199C16.3867 106.262 16.3945 106.305 16.3945 106.328C16.3945 106.355 16.3867 106.404 16.3711 106.475C16.2305 106.486 16.1172 106.498 16.0312 106.51C15.9453 106.521 15.8301 106.541 15.6855 106.568C15.5449 106.596 15.4316 106.629 15.3457 106.668C15.2598 106.703 15.1836 106.754 15.1172 106.82C15.0508 106.883 15.0156 106.955 15.0117 107.037C14.9727 107.955 14.9531 109.047 14.9531 110.312C14.9531 111.598 14.9785 112.83 15.0293 114.01C15.0332 114.111 15.0781 114.199 15.1641 114.273C15.25 114.344 15.373 114.398 15.5332 114.438C15.6973 114.477 15.834 114.506 15.9434 114.525C16.0566 114.541 16.2031 114.557 16.3828 114.572C16.3984 114.635 16.4062 114.688 16.4062 114.73C16.4062 114.762 16.3984 114.801 16.3828 114.848C15.7227 114.824 15.043 114.812 14.3438 114.812C13.6406 114.812 12.9609 114.824 12.3047 114.848C12.2891 114.801 12.2812 114.762 12.2812 114.73C12.2812 114.664 12.2891 114.611 12.3047 114.572C12.4844 114.557 12.6289 114.541 12.7383 114.525C12.8516 114.506 12.9883 114.477 13.1484 114.438C13.3125 114.398 13.4375 114.344 13.5234 114.273C13.6094 114.199 13.6543 114.111 13.6582 114.01C13.6973 112.791 13.7168 111.703 13.7168 110.746C13.7168 109.828 13.6973 108.783 13.6582 107.611H13.6113L10.9336 114.666H10.875L8.02148 107.471H7.95703C7.92578 108.42 7.91016 109.512 7.91016 110.746C7.91016 111.652 7.92969 112.711 7.96875 113.922C7.97656 114.277 8.4082 114.494 9.26367 114.572C9.2832 114.639 9.29297 114.691 9.29297 114.73C9.29297 114.77 9.2832 114.809 9.26367 114.848C8.64258 114.824 8.08789 114.812 7.59961 114.812C7.28711 114.812 6.76367 114.824 6.0293 114.848C6.00977 114.809 6 114.77 6 114.73C6 114.664 6.00977 114.611 6.0293 114.572C6.89258 114.49 7.32422 114.273 7.32422 113.922C7.37109 112.703 7.39453 111.5 7.39453 110.312C7.39453 109.457 7.38281 108.549 7.35938 107.588C7.35547 107.424 7.3457 107.287 7.33008 107.178C7.31445 107.064 7.28516 106.967 7.24219 106.885C7.19922 106.803 7.1543 106.738 7.10742 106.691C7.06055 106.645 6.98828 106.604 6.89062 106.568C6.79297 106.529 6.69727 106.502 6.60352 106.486C6.51367 106.467 6.38477 106.445 6.2168 106.422C6.20117 106.391 6.19336 106.355 6.19336 106.316C6.19336 106.27 6.20117 106.23 6.2168 106.199Z" fill="#EEDBB3"/>
<path d="M22.084 106C22.3848 106 22.7012 106.031 23.0332 106.094C23.3691 106.156 23.6992 106.26 24.0234 106.404C24.3516 106.545 24.6641 106.732 24.9609 106.967C25.2617 107.197 25.5254 107.48 25.752 107.816C25.9785 108.152 26.1582 108.545 26.291 108.994C26.4277 109.443 26.4961 109.959 26.4961 110.541C26.4961 111.127 26.4297 111.646 26.2969 112.1C26.1641 112.549 25.9844 112.941 25.7578 113.277C25.5312 113.609 25.2676 113.891 24.9668 114.121C24.6699 114.348 24.3555 114.531 24.0234 114.672C23.6953 114.809 23.3594 114.906 23.0156 114.965C22.6719 115.027 22.3438 115.059 22.0312 115.059C21.7344 115.059 21.418 115.027 21.082 114.965C20.75 114.906 20.4199 114.809 20.0918 114.672C19.7637 114.531 19.4492 114.348 19.1484 114.121C18.8516 113.891 18.5879 113.609 18.3574 113.277C18.1309 112.941 17.9492 112.549 17.8125 112.1C17.6797 111.646 17.6133 111.127 17.6133 110.541C17.6133 109.939 17.6836 109.41 17.8242 108.953C17.9648 108.492 18.1504 108.094 18.3809 107.758C18.6152 107.422 18.8848 107.143 19.1895 106.92C19.498 106.693 19.8164 106.512 20.1445 106.375C20.4766 106.238 20.8086 106.143 21.1406 106.088C21.4766 106.029 21.791 106 22.084 106ZM22.0547 106.422C21.6875 106.422 21.3613 106.482 21.0762 106.604C20.791 106.725 20.541 106.889 20.3262 107.096C20.1113 107.299 19.9297 107.537 19.7812 107.811C19.6328 108.08 19.5117 108.367 19.418 108.672C19.3281 108.977 19.2617 109.289 19.2188 109.609C19.1797 109.93 19.1602 110.24 19.1602 110.541C19.1602 110.83 19.1797 111.131 19.2188 111.443C19.2578 111.756 19.3223 112.064 19.4121 112.369C19.502 112.67 19.6191 112.957 19.7637 113.23C19.9121 113.504 20.0938 113.744 20.3086 113.951C20.5234 114.158 20.7734 114.324 21.0586 114.449C21.3477 114.57 21.6797 114.631 22.0547 114.631C22.4219 114.631 22.748 114.572 23.0332 114.455C23.3184 114.334 23.5684 114.172 23.7832 113.969C23.998 113.762 24.1777 113.523 24.3223 113.254C24.4707 112.98 24.5898 112.693 24.6797 112.393C24.7734 112.088 24.8398 111.777 24.8789 111.461C24.9219 111.145 24.9434 110.838 24.9434 110.541C24.9434 110.24 24.9219 109.93 24.8789 109.609C24.8398 109.289 24.7734 108.977 24.6797 108.672C24.5898 108.367 24.4707 108.08 24.3223 107.811C24.1738 107.537 23.9922 107.299 23.7773 107.096C23.5625 106.889 23.3125 106.725 23.0273 106.604C22.7422 106.482 22.418 106.422 22.0547 106.422Z" fill="#EEDBB3"/>
<path d="M27.7324 106.211C28.3887 106.234 29.0723 106.246 29.7832 106.246C30.1191 106.246 30.4395 106.238 30.7441 106.223C31.0488 106.207 31.2051 106.199 31.2129 106.199C31.4238 106.199 31.6172 106.205 31.793 106.217C31.9727 106.225 32.1738 106.244 32.3965 106.275C32.623 106.307 32.8242 106.35 33 106.404C33.1758 106.459 33.3516 106.535 33.5273 106.633C33.707 106.73 33.8555 106.846 33.9727 106.979C34.0938 107.111 34.1914 107.275 34.2656 107.471C34.3398 107.666 34.377 107.885 34.377 108.127C34.377 108.842 33.9492 109.379 33.0938 109.738V109.785C33.7344 109.902 34.2695 110.168 34.6992 110.582C35.1328 110.996 35.3496 111.525 35.3496 112.17C35.3496 112.514 35.2871 112.824 35.1621 113.102C35.041 113.375 34.8848 113.602 34.6934 113.781C34.502 113.961 34.2617 114.117 33.9727 114.25C33.6836 114.383 33.4023 114.484 33.1289 114.555C32.8555 114.625 32.541 114.682 32.1855 114.725C31.834 114.764 31.5332 114.789 31.2832 114.801C31.0332 114.809 30.7539 114.812 30.4453 114.812C29.3867 114.812 28.4785 114.824 27.7207 114.848C27.7051 114.801 27.6973 114.762 27.6973 114.73C27.6973 114.703 27.7051 114.65 27.7207 114.572C27.8379 114.561 27.9316 114.551 28.002 114.543C28.0723 114.535 28.168 114.521 28.2891 114.502C28.4141 114.482 28.5137 114.461 28.5879 114.438C28.666 114.41 28.7461 114.377 28.8281 114.338C28.9102 114.299 28.9707 114.252 29.0098 114.197C29.0527 114.143 29.0742 114.08 29.0742 114.01C29.1211 112.787 29.1445 111.555 29.1445 110.312C29.1445 109.047 29.125 107.955 29.0859 107.037C29.082 106.936 29.0371 106.85 28.9512 106.779C28.8691 106.709 28.7441 106.654 28.5762 106.615C28.4082 106.576 28.2734 106.551 28.1719 106.539C28.0703 106.523 27.9238 106.506 27.7324 106.486C27.7168 106.416 27.709 106.367 27.709 106.34C27.709 106.316 27.7168 106.273 27.7324 106.211ZM30.3809 110.312V110.746L30.4453 114.414C30.707 114.414 30.9395 114.41 31.1426 114.402C31.3457 114.391 31.5684 114.367 31.8105 114.332C32.0527 114.293 32.2637 114.242 32.4434 114.18C32.623 114.117 32.8027 114.031 32.9824 113.922C33.1621 113.809 33.3086 113.676 33.4219 113.523C33.5352 113.371 33.627 113.184 33.6973 112.961C33.7676 112.734 33.8027 112.48 33.8027 112.199C33.8027 111.926 33.7578 111.682 33.668 111.467C33.5781 111.248 33.4512 111.066 33.2871 110.922C33.127 110.773 32.9297 110.65 32.6953 110.553C32.4648 110.455 32.2129 110.385 31.9395 110.342C31.6699 110.299 31.375 110.277 31.0547 110.277C30.832 110.277 30.6074 110.289 30.3809 110.312ZM30.457 106.615L30.3809 109.955C31.9746 109.955 32.7715 109.346 32.7715 108.127C32.7715 107.596 32.6055 107.205 32.2734 106.955C31.9453 106.705 31.5078 106.58 30.9609 106.58C30.8398 106.58 30.6719 106.592 30.457 106.615Z" fill="#EEDBB3"/>
<path d="M36.416 106.199C37.291 106.23 37.9707 106.246 38.4551 106.246C38.9395 106.246 39.6191 106.23 40.4941 106.199C40.5098 106.262 40.5176 106.305 40.5176 106.328C40.5176 106.371 40.5098 106.42 40.4941 106.475C40.3145 106.49 40.168 106.508 40.0547 106.527C39.9453 106.543 39.8086 106.57 39.6445 106.609C39.4844 106.648 39.3613 106.705 39.2754 106.779C39.1895 106.85 39.1445 106.936 39.1406 107.037C39.0898 108.365 39.0645 109.602 39.0645 110.746C39.0645 111.582 39.0859 112.67 39.1289 114.01C39.1328 114.111 39.1777 114.199 39.2637 114.273C39.3496 114.344 39.4727 114.398 39.6328 114.438C39.7969 114.477 39.9336 114.506 40.043 114.525C40.1562 114.541 40.3027 114.557 40.4824 114.572C40.498 114.619 40.5059 114.672 40.5059 114.73C40.5059 114.762 40.498 114.801 40.4824 114.848C39.8184 114.824 39.1387 114.812 38.4434 114.812C37.7402 114.812 37.0605 114.824 36.4043 114.848C36.3887 114.801 36.3809 114.762 36.3809 114.73C36.3809 114.664 36.3887 114.611 36.4043 114.572C36.5215 114.561 36.6152 114.551 36.6855 114.543C36.7559 114.535 36.8516 114.521 36.9727 114.502C37.0977 114.482 37.1973 114.461 37.2715 114.438C37.3496 114.41 37.4297 114.377 37.5117 114.338C37.5938 114.299 37.6543 114.252 37.6934 114.197C37.7363 114.143 37.7578 114.08 37.7578 114.01C37.8047 112.787 37.8281 111.555 37.8281 110.312C37.8281 109.047 37.8086 107.955 37.7695 107.037C37.7656 106.936 37.7207 106.85 37.6348 106.779C37.5488 106.705 37.4238 106.648 37.2598 106.609C37.0996 106.57 36.9629 106.543 36.8496 106.527C36.7402 106.508 36.5957 106.49 36.416 106.475C36.4004 106.404 36.3926 106.355 36.3926 106.328C36.3926 106.289 36.4004 106.246 36.416 106.199Z" fill="#EEDBB3"/>
<path d="M41.3965 106.199C42.2715 106.23 42.9512 106.246 43.4355 106.246C43.9199 106.246 44.5996 106.23 45.4746 106.199C45.4902 106.262 45.498 106.305 45.498 106.328C45.498 106.355 45.4902 106.404 45.4746 106.475C45.2949 106.49 45.1484 106.508 45.0352 106.527C44.9258 106.543 44.7891 106.57 44.625 106.609C44.4648 106.648 44.3418 106.705 44.2559 106.779C44.1699 106.85 44.125 106.936 44.1211 107.037C44.0703 108.365 44.0449 109.602 44.0449 110.746C44.0449 111.336 44.0664 112.572 44.1094 114.455H45.9199C46.4941 114.416 47.0078 114.332 47.4609 114.203C47.9141 114.074 48.291 113.91 48.5918 113.711C48.8965 113.508 49.1465 113.299 49.3418 113.084C49.541 112.865 49.7129 112.621 49.8574 112.352C49.959 112.391 50.0254 112.443 50.0566 112.51C49.8965 112.807 49.7715 113.047 49.6816 113.23C49.5957 113.414 49.5 113.656 49.3945 113.957C49.293 114.254 49.2266 114.539 49.1953 114.812H44.1094C43.0508 114.812 42.1426 114.824 41.3848 114.848C41.3691 114.801 41.3613 114.762 41.3613 114.73C41.3613 114.703 41.3691 114.65 41.3848 114.572C41.5645 114.557 41.709 114.541 41.8184 114.525C41.9316 114.506 42.0684 114.477 42.2285 114.438C42.3926 114.398 42.5176 114.344 42.6035 114.273C42.6895 114.199 42.7344 114.111 42.7383 114.01C42.7852 112.787 42.8086 111.555 42.8086 110.312C42.8086 109.047 42.7891 107.955 42.75 107.037C42.7461 106.936 42.7012 106.85 42.6152 106.779C42.5293 106.705 42.4043 106.648 42.2402 106.609C42.0801 106.57 41.9434 106.543 41.8301 106.527C41.7207 106.508 41.5762 106.49 41.3965 106.475C41.3809 106.404 41.373 106.355 41.373 106.328C41.373 106.289 41.3809 106.246 41.3965 106.199Z" fill="#EEDBB3"/>
<path d="M50.7598 106.199C51.6348 106.23 52.3145 106.246 52.7988 106.246C53.2832 106.246 53.9629 106.23 54.8379 106.199C54.8535 106.262 54.8613 106.305 54.8613 106.328C54.8613 106.371 54.8535 106.42 54.8379 106.475C54.6582 106.49 54.5117 106.508 54.3984 106.527C54.2891 106.543 54.1523 106.57 53.9883 106.609C53.8281 106.648 53.7051 106.705 53.6191 106.779C53.5332 106.85 53.4883 106.936 53.4844 107.037C53.4336 108.365 53.4082 109.602 53.4082 110.746C53.4082 111.582 53.4297 112.67 53.4727 114.01C53.4766 114.111 53.5215 114.199 53.6074 114.273C53.6934 114.344 53.8164 114.398 53.9766 114.438C54.1406 114.477 54.2773 114.506 54.3867 114.525C54.5 114.541 54.6465 114.557 54.8262 114.572C54.8418 114.619 54.8496 114.672 54.8496 114.73C54.8496 114.762 54.8418 114.801 54.8262 114.848C54.1621 114.824 53.4824 114.812 52.7871 114.812C52.084 114.812 51.4043 114.824 50.748 114.848C50.7324 114.801 50.7246 114.762 50.7246 114.73C50.7246 114.664 50.7324 114.611 50.748 114.572C50.8652 114.561 50.959 114.551 51.0293 114.543C51.0996 114.535 51.1953 114.521 51.3164 114.502C51.4414 114.482 51.541 114.461 51.6152 114.438C51.6934 114.41 51.7734 114.377 51.8555 114.338C51.9375 114.299 51.998 114.252 52.0371 114.197C52.0801 114.143 52.1016 114.08 52.1016 114.01C52.1484 112.787 52.1719 111.555 52.1719 110.312C52.1719 109.047 52.1523 107.955 52.1133 107.037C52.1094 106.936 52.0645 106.85 51.9785 106.779C51.8926 106.705 51.7676 106.648 51.6035 106.609C51.4434 106.57 51.3066 106.543 51.1934 106.527C51.084 106.508 50.9395 106.49 50.7598 106.475C50.7441 106.404 50.7363 106.355 50.7363 106.328C50.7363 106.289 50.7441 106.246 50.7598 106.199Z" fill="#EEDBB3"/>
<path d="M59.918 106.111C59.9766 106.068 60.0391 106.041 60.1055 106.029L63.3105 114.033C63.3496 114.131 63.4141 114.215 63.5039 114.285C63.5938 114.352 63.7051 114.404 63.8379 114.443C63.9746 114.479 64.0918 114.506 64.1895 114.525C64.291 114.541 64.4141 114.557 64.5586 114.572C64.5742 114.635 64.582 114.688 64.582 114.73C64.582 114.777 64.5742 114.82 64.5586 114.859C63.7148 114.828 63.084 114.812 62.666 114.812C62.2129 114.812 61.5566 114.828 60.6973 114.859C60.6816 114.812 60.6738 114.766 60.6738 114.719C60.6738 114.668 60.6816 114.619 60.6973 114.572C61.4863 114.486 61.8809 114.338 61.8809 114.127C61.8809 114.061 61.873 113.992 61.8574 113.922L61.0078 111.742C60.75 111.734 60.4023 111.73 59.9648 111.73C59.7578 111.73 59.2207 111.738 58.3535 111.754L57.457 114.033V114.104C57.457 114.143 57.4629 114.18 57.4746 114.215C57.4902 114.25 57.5137 114.281 57.5449 114.309C57.5801 114.336 57.6133 114.359 57.6445 114.379C57.6758 114.398 57.7188 114.418 57.7734 114.438C57.832 114.453 57.8809 114.467 57.9199 114.479C57.9629 114.486 58.0195 114.496 58.0898 114.508C58.1641 114.52 58.2207 114.529 58.2598 114.537C58.2988 114.541 58.3555 114.547 58.4297 114.555C58.5078 114.562 58.5625 114.568 58.5938 114.572C58.6094 114.635 58.6172 114.688 58.6172 114.73C58.6172 114.754 58.6094 114.797 58.5938 114.859C57.7188 114.828 57.2266 114.812 57.1172 114.812C56.9062 114.812 56.3633 114.828 55.4883 114.859C55.4727 114.812 55.4648 114.766 55.4648 114.719C55.4648 114.668 55.4727 114.619 55.4883 114.572C56.3008 114.479 56.7637 114.279 56.877 113.975L59.3965 107.623L59.2676 107.277C59.4902 107.129 59.6445 106.969 59.7305 106.797C59.8203 106.625 59.8828 106.396 59.918 106.111ZM59.9648 111.273C60.3242 111.273 60.6074 111.27 60.8145 111.262L59.7012 108.379H59.6777L58.5586 111.25C58.9258 111.266 59.3945 111.273 59.9648 111.273Z" fill="#EEDBB3"/>
<path d="M65.2793 106.199C66.1543 106.23 66.8535 106.246 67.377 106.246C68.3535 106.215 68.9531 106.199 69.1758 106.199C69.5391 106.199 69.8809 106.215 70.2012 106.246C70.5215 106.277 70.8516 106.336 71.1914 106.422C71.5352 106.504 71.8457 106.613 72.123 106.75C72.4004 106.883 72.666 107.061 72.9199 107.283C73.1738 107.506 73.3867 107.764 73.5586 108.057C73.7305 108.35 73.8672 108.703 73.9688 109.117C74.0703 109.527 74.1211 109.982 74.1211 110.482C74.0898 110.963 74.0059 111.404 73.8691 111.807C73.7363 112.209 73.5645 112.557 73.3535 112.85C73.1465 113.143 72.9004 113.404 72.6152 113.635C72.3301 113.865 72.0312 114.053 71.7188 114.197C71.4102 114.342 71.0742 114.461 70.7109 114.555C70.3516 114.648 70 114.715 69.6562 114.754C69.3164 114.793 68.9648 114.812 68.6016 114.812C67.1367 114.812 66.0254 114.824 65.2676 114.848C65.252 114.801 65.2441 114.762 65.2441 114.73C65.2441 114.703 65.252 114.65 65.2676 114.572C65.3848 114.561 65.4785 114.551 65.5488 114.543C65.6191 114.535 65.7148 114.521 65.8359 114.502C65.9609 114.482 66.0605 114.461 66.1348 114.438C66.2129 114.41 66.293 114.377 66.375 114.338C66.457 114.299 66.5176 114.252 66.5566 114.197C66.5996 114.143 66.6211 114.08 66.6211 114.01C66.668 112.787 66.6914 111.555 66.6914 110.312C66.6914 109.047 66.6719 107.955 66.6328 107.037C66.6289 106.936 66.584 106.85 66.498 106.779C66.4121 106.705 66.2871 106.648 66.123 106.609C65.9629 106.57 65.8262 106.543 65.7129 106.527C65.6035 106.508 65.459 106.49 65.2793 106.475C65.2637 106.404 65.2559 106.355 65.2559 106.328C65.2559 106.305 65.2637 106.262 65.2793 106.199ZM68.0039 107.037C67.9531 108.365 67.9277 109.602 67.9277 110.746C67.9277 111.379 67.9492 112.59 67.9922 114.379C68.1602 114.387 68.4004 114.391 68.7129 114.391C69.3457 114.391 69.9082 114.295 70.4004 114.104C70.8926 113.908 71.2969 113.637 71.6133 113.289C71.9297 112.941 72.168 112.531 72.3281 112.059C72.4922 111.582 72.5742 111.057 72.5742 110.482C72.5742 110.186 72.5508 109.895 72.5039 109.609C72.457 109.324 72.3828 109.033 72.2812 108.736C72.1797 108.439 72.0391 108.166 71.8594 107.916C71.6797 107.666 71.4648 107.443 71.2148 107.248C70.9688 107.049 70.6641 106.895 70.3008 106.785C69.9414 106.672 69.543 106.615 69.1055 106.615C68.7031 106.615 68.3359 106.641 68.0039 106.691V107.037Z" fill="#EEDBB3"/>
<path d="M80.1504 106C80.4512 106 80.7676 106.031 81.0996 106.094C81.4355 106.156 81.7656 106.26 82.0898 106.404C82.418 106.545 82.7305 106.732 83.0273 106.967C83.3281 107.197 83.5918 107.48 83.8184 107.816C84.0449 108.152 84.2246 108.545 84.3574 108.994C84.4941 109.443 84.5625 109.959 84.5625 110.541C84.5625 111.127 84.4961 111.646 84.3633 112.1C84.2305 112.549 84.0508 112.941 83.8242 113.277C83.5977 113.609 83.334 113.891 83.0332 114.121C82.7363 114.348 82.4219 114.531 82.0898 114.672C81.7617 114.809 81.4258 114.906 81.082 114.965C80.7383 115.027 80.4102 115.059 80.0977 115.059C79.8008 115.059 79.4844 115.027 79.1484 114.965C78.8164 114.906 78.4863 114.809 78.1582 114.672C77.8301 114.531 77.5156 114.348 77.2148 114.121C76.918 113.891 76.6543 113.609 76.4238 113.277C76.1973 112.941 76.0156 112.549 75.8789 112.1C75.7461 111.646 75.6797 111.127 75.6797 110.541C75.6797 109.939 75.75 109.41 75.8906 108.953C76.0312 108.492 76.2168 108.094 76.4473 107.758C76.6816 107.422 76.9512 107.143 77.2559 106.92C77.5645 106.693 77.8828 106.512 78.2109 106.375C78.543 106.238 78.875 106.143 79.207 106.088C79.543 106.029 79.8574 106 80.1504 106ZM80.1211 106.422C79.7539 106.422 79.4277 106.482 79.1426 106.604C78.8574 106.725 78.6074 106.889 78.3926 107.096C78.1777 107.299 77.9961 107.537 77.8477 107.811C77.6992 108.08 77.5781 108.367 77.4844 108.672C77.3945 108.977 77.3281 109.289 77.2852 109.609C77.2461 109.93 77.2266 110.24 77.2266 110.541C77.2266 110.83 77.2461 111.131 77.2852 111.443C77.3242 111.756 77.3887 112.064 77.4785 112.369C77.5684 112.67 77.6855 112.957 77.8301 113.23C77.9785 113.504 78.1602 113.744 78.375 113.951C78.5898 114.158 78.8398 114.324 79.125 114.449C79.4141 114.57 79.7461 114.631 80.1211 114.631C80.4883 114.631 80.8145 114.572 81.0996 114.455C81.3848 114.334 81.6348 114.172 81.8496 113.969C82.0645 113.762 82.2441 113.523 82.3887 113.254C82.5371 112.98 82.6562 112.693 82.7461 112.393C82.8398 112.088 82.9062 111.777 82.9453 111.461C82.9883 111.145 83.0098 110.838 83.0098 110.541C83.0098 110.24 82.9883 109.93 82.9453 109.609C82.9062 109.289 82.8398 108.977 82.7461 108.672C82.6562 108.367 82.5371 108.08 82.3887 107.811C82.2402 107.537 82.0586 107.299 81.8438 107.096C81.6289 106.889 81.3789 106.725 81.0938 106.604C80.8086 106.482 80.4844 106.422 80.1211 106.422Z" fill="#EEDBB3"/>
<path d="M91.4355 108.678C91.2871 107.963 91.0137 107.408 90.6152 107.014C90.2207 106.619 89.7461 106.422 89.1914 106.422C88.6484 106.422 88.2266 106.551 87.9258 106.809C87.6289 107.066 87.4805 107.41 87.4805 107.84C87.4805 108.078 87.502 108.275 87.5449 108.432C87.5879 108.588 87.6758 108.74 87.8086 108.889C87.9414 109.033 88.1348 109.162 88.3887 109.275C88.6426 109.385 88.9746 109.49 89.3848 109.592C89.6074 109.646 89.8008 109.697 89.9648 109.744C90.1328 109.791 90.3164 109.855 90.5156 109.938C90.7188 110.02 90.8926 110.107 91.0371 110.201C91.1855 110.295 91.332 110.412 91.4766 110.553C91.625 110.689 91.7441 110.842 91.834 111.01C91.9277 111.178 92.002 111.377 92.0566 111.607C92.1152 111.834 92.1445 112.082 92.1445 112.352C92.1445 112.711 92.0781 113.043 91.9453 113.348C91.8125 113.648 91.6387 113.902 91.4238 114.109C91.209 114.316 90.9609 114.492 90.6797 114.637C90.3984 114.781 90.1133 114.887 89.8242 114.953C89.5352 115.02 89.248 115.053 88.9629 115.053C88.0957 115.053 87.1719 114.828 86.1914 114.379C86.2109 113.957 86.2207 113.697 86.2207 113.6C86.2207 112.963 86.168 112.328 86.0625 111.695C86.1055 111.668 86.1484 111.654 86.1914 111.654C86.2461 111.654 86.2949 111.668 86.3379 111.695C86.4199 112.199 86.5547 112.645 86.7422 113.031C86.9336 113.418 87.1523 113.725 87.3984 113.951C87.6445 114.174 87.8984 114.342 88.1602 114.455C88.4258 114.564 88.6934 114.619 88.9629 114.619C89.5762 114.619 90.0469 114.461 90.375 114.145C90.707 113.824 90.873 113.402 90.873 112.879C90.873 112.352 90.75 111.955 90.5039 111.689C90.2617 111.42 89.7969 111.201 89.1094 111.033C88.25 110.818 87.5781 110.502 87.0938 110.084C86.6133 109.662 86.373 109.105 86.373 108.414C86.373 108.051 86.4316 107.727 86.5488 107.441C86.6699 107.152 86.8242 106.922 87.0117 106.75C87.2031 106.574 87.4258 106.43 87.6797 106.316C87.9336 106.199 88.1836 106.119 88.4297 106.076C88.6797 106.029 88.9336 106.006 89.1914 106.006C89.9648 106.006 90.7695 106.186 91.6055 106.545C91.582 106.775 91.5703 107.016 91.5703 107.266C91.5703 107.852 91.6172 108.322 91.7109 108.678C91.6602 108.697 91.6172 108.707 91.582 108.707C91.543 108.707 91.4941 108.697 91.4355 108.678Z" fill="#EEDBB3"/>
</svg>
