<svg width="335" height="103" viewBox="0 0 335 103" fill="none" xmlns="http://www.w3.org/2000/svg">
<path d="M47.618 2.49345C46.5923 1.66147 45.7523 0.759671 45.7523 0.490379C45.7523 0.220255 47.7573 0 50.2077 0H54.6631L63.1933 14.1354C67.885 21.9091 71.93 28.063 72.1821 27.8103C72.4341 27.5576 76.2204 21.2907 80.5962 13.8835L88.5509 0.415575L92.8579 0.164568C97.6367 -0.114699 98.0397 0.270124 95.2983 2.49428C93.4541 3.99118 93.4325 4.24967 93.4325 24.5838C93.4325 40.305 93.6771 45.2412 94.469 45.5055C97.2942 46.4497 94.8696 47.3756 89.5725 47.3756H83.6394L85.2191 45.6277C86.6586 44.0343 86.8195 42.2083 87.0342 25.0567L87.2689 6.23363L78.742 20.5627C74.0519 28.4445 69.8826 34.8958 69.4763 34.9C69.0708 34.905 68.2432 34.2542 67.6371 33.4538C66.7117 32.232 66.5317 35.2906 66.5093 52.596C66.487 70.1549 66.6661 73.2642 67.7266 73.6715C70.5916 74.7736 68.5915 75.6347 63.1659 75.6347C59.9734 75.6347 57.373 75.3537 57.3879 75.0113C57.402 74.6689 57.9617 73.6615 58.6317 72.7747C59.5422 71.5678 59.849 68.6896 59.849 61.3464V51.5313L50.1057 51.5438C44.7464 51.5513 40.8383 51.8596 41.4204 52.2303C42.6402 53.0058 43.8683 61.5101 42.7579 61.4951C42.3525 61.4893 41.1891 60.1977 40.1724 58.6243C39.1566 57.0518 37.5703 55.3596 36.6482 54.8651C35.0138 53.9882 34.9724 54.1918 34.9724 63.0785C34.9724 70.0709 35.2618 72.4813 36.2162 73.4379C36.9003 74.1236 37.46 74.8983 37.46 75.1601C37.46 75.4211 34.848 75.6347 31.6555 75.6347C28.463 75.6347 25.8509 75.4211 25.8509 75.1601C25.8509 74.8983 26.4107 74.1236 27.0948 73.4379C28.0666 72.4638 28.3386 69.9355 28.3386 61.8617V51.5313H23.9081C8.24159 51.5313 0.834981 70.6212 10.3387 86.5069C13.9359 92.5187 19.0016 95.6355 26.0143 96.1508C30.3453 96.4691 31.8794 96.204 34.9657 94.604C38.2345 92.9093 41.5863 89.2547 42.6808 86.1919C43.5814 83.6711 44.1701 86.7579 43.5424 90.7101L42.8434 95.1093L38.2859 96.5422C32.5336 98.35 20.9577 98.5046 15.3928 96.8481C9.99208 95.2398 4.54907 90.4823 2.11364 85.2394C-0.89975 78.7531 -0.674202 70.0635 2.68249 63.3303C6.6188 55.4352 13.8032 50.7567 24.0905 49.3886L28.3386 48.8234V39.8902C28.3386 32.9626 28.0592 30.7235 27.0948 29.9214C24.7846 27.999 25.8294 27.428 31.6555 27.428C37.4816 27.428 38.5264 27.999 36.2162 29.9214C35.2502 30.7251 34.9724 32.9742 34.9724 39.9966V49.0379H59.849V40.4695C59.849 34.2226 59.519 31.464 58.6317 30.2879C56.8224 27.8909 57.0479 27.5485 60.621 27.2675L63.8807 27.0124L51.9714 7.55516L51.7227 21.8551C51.4175 39.3932 51.8396 42.7909 54.6465 45.3983L56.7743 47.3756H52.0925C47.0716 47.3756 46.7042 47.1337 48.696 45.1373C49.7997 44.031 49.9456 41.0372 49.7325 23.928C49.4887 4.4159 49.4456 3.97539 47.618 2.49345Z" fill="#EEDBB3"/>
<path d="M179.574 93.3867C180.309 93.418 181.232 93.4336 182.346 93.4336L184.613 99.5742H184.643L187.004 93.4336H187.678C188.162 93.4336 188.846 93.418 189.729 93.3867C189.744 93.4492 189.752 93.4922 189.752 93.5156C189.752 93.543 189.744 93.5918 189.729 93.6621C189.588 93.6738 189.475 93.6855 189.389 93.6973C189.303 93.709 189.188 93.7285 189.043 93.7559C188.902 93.7832 188.789 93.8164 188.703 93.8555C188.617 93.8906 188.541 93.9414 188.475 94.0078C188.408 94.0703 188.373 94.1426 188.369 94.2246C188.33 95.1426 188.311 96.2344 188.311 97.5C188.311 98.7852 188.336 100.018 188.387 101.197C188.391 101.299 188.436 101.387 188.521 101.461C188.607 101.531 188.73 101.586 188.891 101.625C189.055 101.664 189.191 101.693 189.301 101.713C189.414 101.729 189.561 101.744 189.74 101.76C189.756 101.822 189.764 101.875 189.764 101.918C189.764 101.949 189.756 101.988 189.74 102.035C189.08 102.012 188.4 102 187.701 102C186.998 102 186.318 102.012 185.662 102.035C185.646 101.988 185.639 101.949 185.639 101.918C185.639 101.852 185.646 101.799 185.662 101.76C185.842 101.744 185.986 101.729 186.096 101.713C186.209 101.693 186.346 101.664 186.506 101.625C186.67 101.586 186.795 101.531 186.881 101.461C186.967 101.387 187.012 101.299 187.016 101.197C187.055 99.9785 187.074 98.8906 187.074 97.9336C187.074 97.0156 187.055 95.9707 187.016 94.7988H186.969L184.291 101.854H184.232L181.379 94.6582H181.314C181.283 95.6074 181.268 96.6992 181.268 97.9336C181.268 98.8398 181.287 99.8984 181.326 101.109C181.334 101.465 181.766 101.682 182.621 101.76C182.641 101.826 182.65 101.879 182.65 101.918C182.65 101.957 182.641 101.996 182.621 102.035C182 102.012 181.445 102 180.957 102C180.645 102 180.121 102.012 179.387 102.035C179.367 101.996 179.357 101.957 179.357 101.918C179.357 101.852 179.367 101.799 179.387 101.76C180.25 101.678 180.682 101.461 180.682 101.109C180.729 99.8906 180.752 98.6875 180.752 97.5C180.752 96.6445 180.74 95.7363 180.717 94.7754C180.713 94.6113 180.703 94.4746 180.688 94.3652C180.672 94.252 180.643 94.1543 180.6 94.0723C180.557 93.9902 180.512 93.9258 180.465 93.8789C180.418 93.832 180.346 93.791 180.248 93.7559C180.15 93.7168 180.055 93.6895 179.961 93.6738C179.871 93.6543 179.742 93.6328 179.574 93.6094C179.559 93.5781 179.551 93.543 179.551 93.5039C179.551 93.457 179.559 93.418 179.574 93.3867Z" fill="#EEDBB3"/>
<path d="M195.441 93.1875C195.742 93.1875 196.059 93.2188 196.391 93.2812C196.727 93.3438 197.057 93.4473 197.381 93.5918C197.709 93.7324 198.021 93.9199 198.318 94.1543C198.619 94.3848 198.883 94.668 199.109 95.0039C199.336 95.3398 199.516 95.7324 199.648 96.1816C199.785 96.6309 199.854 97.1465 199.854 97.7285C199.854 98.3145 199.787 98.834 199.654 99.2871C199.521 99.7363 199.342 100.129 199.115 100.465C198.889 100.797 198.625 101.078 198.324 101.309C198.027 101.535 197.713 101.719 197.381 101.859C197.053 101.996 196.717 102.094 196.373 102.152C196.029 102.215 195.701 102.246 195.389 102.246C195.092 102.246 194.775 102.215 194.439 102.152C194.107 102.094 193.777 101.996 193.449 101.859C193.121 101.719 192.807 101.535 192.506 101.309C192.209 101.078 191.945 100.797 191.715 100.465C191.488 100.129 191.307 99.7363 191.17 99.2871C191.037 98.834 190.971 98.3145 190.971 97.7285C190.971 97.127 191.041 96.5977 191.182 96.1406C191.322 95.6797 191.508 95.2812 191.738 94.9453C191.973 94.6094 192.242 94.3301 192.547 94.1074C192.855 93.8809 193.174 93.6992 193.502 93.5625C193.834 93.4258 194.166 93.3301 194.498 93.2754C194.834 93.2168 195.148 93.1875 195.441 93.1875ZM195.412 93.6094C195.045 93.6094 194.719 93.6699 194.434 93.791C194.148 93.9121 193.898 94.0762 193.684 94.2832C193.469 94.4863 193.287 94.7246 193.139 94.998C192.99 95.2676 192.869 95.5547 192.775 95.8594C192.686 96.1641 192.619 96.4766 192.576 96.7969C192.537 97.1172 192.518 97.4277 192.518 97.7285C192.518 98.0176 192.537 98.3184 192.576 98.6309C192.615 98.9434 192.68 99.252 192.77 99.5566C192.859 99.8574 192.977 100.145 193.121 100.418C193.27 100.691 193.451 100.932 193.666 101.139C193.881 101.346 194.131 101.512 194.416 101.637C194.705 101.758 195.037 101.818 195.412 101.818C195.779 101.818 196.105 101.76 196.391 101.643C196.676 101.521 196.926 101.359 197.141 101.156C197.355 100.949 197.535 100.711 197.68 100.441C197.828 100.168 197.947 99.8809 198.037 99.5801C198.131 99.2754 198.197 98.9648 198.236 98.6484C198.279 98.332 198.301 98.0254 198.301 97.7285C198.301 97.4277 198.279 97.1172 198.236 96.7969C198.197 96.4766 198.131 96.1641 198.037 95.8594C197.947 95.5547 197.828 95.2676 197.68 94.998C197.531 94.7246 197.35 94.4863 197.135 94.2832C196.92 94.0762 196.67 93.9121 196.385 93.791C196.1 93.6699 195.775 93.6094 195.412 93.6094Z" fill="#EEDBB3"/>
<path d="M201.09 93.3984C201.746 93.4219 202.43 93.4336 203.141 93.4336C203.477 93.4336 203.797 93.4258 204.102 93.4102C204.406 93.3945 204.562 93.3867 204.57 93.3867C204.781 93.3867 204.975 93.3926 205.15 93.4043C205.33 93.4121 205.531 93.4316 205.754 93.4629C205.98 93.4941 206.182 93.5371 206.357 93.5918C206.533 93.6465 206.709 93.7227 206.885 93.8203C207.064 93.918 207.213 94.0332 207.33 94.166C207.451 94.2988 207.549 94.4629 207.623 94.6582C207.697 94.8535 207.734 95.0723 207.734 95.3145C207.734 96.0293 207.307 96.5664 206.451 96.9258V96.9727C207.092 97.0898 207.627 97.3555 208.057 97.7695C208.49 98.1836 208.707 98.7129 208.707 99.3574C208.707 99.7012 208.645 100.012 208.52 100.289C208.398 100.562 208.242 100.789 208.051 100.969C207.859 101.148 207.619 101.305 207.33 101.438C207.041 101.57 206.76 101.672 206.486 101.742C206.213 101.812 205.898 101.869 205.543 101.912C205.191 101.951 204.891 101.977 204.641 101.988C204.391 101.996 204.111 102 203.803 102C202.744 102 201.836 102.012 201.078 102.035C201.062 101.988 201.055 101.949 201.055 101.918C201.055 101.891 201.062 101.838 201.078 101.76C201.195 101.748 201.289 101.738 201.359 101.73C201.43 101.723 201.525 101.709 201.646 101.689C201.771 101.67 201.871 101.648 201.945 101.625C202.023 101.598 202.104 101.564 202.186 101.525C202.268 101.486 202.328 101.439 202.367 101.385C202.41 101.33 202.432 101.268 202.432 101.197C202.479 99.9746 202.502 98.7422 202.502 97.5C202.502 96.2344 202.482 95.1426 202.443 94.2246C202.439 94.123 202.395 94.0371 202.309 93.9668C202.227 93.8965 202.102 93.8418 201.934 93.8027C201.766 93.7637 201.631 93.7383 201.529 93.7266C201.428 93.7109 201.281 93.6934 201.09 93.6738C201.074 93.6035 201.066 93.5547 201.066 93.5273C201.066 93.5039 201.074 93.4609 201.09 93.3984ZM203.738 97.5V97.9336L203.803 101.602C204.064 101.602 204.297 101.598 204.5 101.59C204.703 101.578 204.926 101.555 205.168 101.52C205.41 101.48 205.621 101.43 205.801 101.367C205.98 101.305 206.16 101.219 206.34 101.109C206.52 100.996 206.666 100.863 206.779 100.711C206.893 100.559 206.984 100.371 207.055 100.148C207.125 99.9219 207.16 99.668 207.16 99.3867C207.16 99.1133 207.115 98.8691 207.025 98.6543C206.936 98.4355 206.809 98.2539 206.645 98.1094C206.484 97.9609 206.287 97.8379 206.053 97.7402C205.822 97.6426 205.57 97.5723 205.297 97.5293C205.027 97.4863 204.732 97.4648 204.412 97.4648C204.189 97.4648 203.965 97.4766 203.738 97.5ZM203.814 93.8027L203.738 97.1426C205.332 97.1426 206.129 96.5332 206.129 95.3145C206.129 94.7832 205.963 94.3926 205.631 94.1426C205.303 93.8926 204.865 93.7676 204.318 93.7676C204.197 93.7676 204.029 93.7793 203.814 93.8027Z" fill="#EEDBB3"/>
<path d="M209.773 93.3867C210.648 93.418 211.328 93.4336 211.812 93.4336C212.297 93.4336 212.977 93.418 213.852 93.3867C213.867 93.4492 213.875 93.4922 213.875 93.5156C213.875 93.5586 213.867 93.6074 213.852 93.6621C213.672 93.6777 213.525 93.6953 213.412 93.7148C213.303 93.7305 213.166 93.7578 213.002 93.7969C212.842 93.8359 212.719 93.8926 212.633 93.9668C212.547 94.0371 212.502 94.123 212.498 94.2246C212.447 95.5527 212.422 96.7891 212.422 97.9336C212.422 98.7695 212.443 99.8574 212.486 101.197C212.49 101.299 212.535 101.387 212.621 101.461C212.707 101.531 212.83 101.586 212.99 101.625C213.154 101.664 213.291 101.693 213.4 101.713C213.514 101.729 213.66 101.744 213.84 101.76C213.855 101.807 213.863 101.859 213.863 101.918C213.863 101.949 213.855 101.988 213.84 102.035C213.176 102.012 212.496 102 211.801 102C211.098 102 210.418 102.012 209.762 102.035C209.746 101.988 209.738 101.949 209.738 101.918C209.738 101.852 209.746 101.799 209.762 101.76C209.879 101.748 209.973 101.738 210.043 101.73C210.113 101.723 210.209 101.709 210.33 101.689C210.455 101.67 210.555 101.648 210.629 101.625C210.707 101.598 210.787 101.564 210.869 101.525C210.951 101.486 211.012 101.439 211.051 101.385C211.094 101.33 211.115 101.268 211.115 101.197C211.162 99.9746 211.186 98.7422 211.186 97.5C211.186 96.2344 211.166 95.1426 211.127 94.2246C211.123 94.123 211.078 94.0371 210.992 93.9668C210.906 93.8926 210.781 93.8359 210.617 93.7969C210.457 93.7578 210.32 93.7305 210.207 93.7148C210.098 93.6953 209.953 93.6777 209.773 93.6621C209.758 93.5918 209.75 93.543 209.75 93.5156C209.75 93.4766 209.758 93.4336 209.773 93.3867Z" fill="#EEDBB3"/>
<path d="M214.754 93.3867C215.629 93.418 216.309 93.4336 216.793 93.4336C217.277 93.4336 217.957 93.418 218.832 93.3867C218.848 93.4492 218.855 93.4922 218.855 93.5156C218.855 93.543 218.848 93.5918 218.832 93.6621C218.652 93.6777 218.506 93.6953 218.393 93.7148C218.283 93.7305 218.146 93.7578 217.982 93.7969C217.822 93.8359 217.699 93.8926 217.613 93.9668C217.527 94.0371 217.482 94.123 217.479 94.2246C217.428 95.5527 217.402 96.7891 217.402 97.9336C217.402 98.5234 217.424 99.7598 217.467 101.643H219.277C219.852 101.604 220.365 101.52 220.818 101.391C221.271 101.262 221.648 101.098 221.949 100.898C222.254 100.695 222.504 100.486 222.699 100.271C222.898 100.053 223.07 99.8086 223.215 99.5391C223.316 99.5781 223.383 99.6309 223.414 99.6973C223.254 99.9941 223.129 100.234 223.039 100.418C222.953 100.602 222.857 100.844 222.752 101.145C222.65 101.441 222.584 101.727 222.553 102H217.467C216.408 102 215.5 102.012 214.742 102.035C214.727 101.988 214.719 101.949 214.719 101.918C214.719 101.891 214.727 101.838 214.742 101.76C214.922 101.744 215.066 101.729 215.176 101.713C215.289 101.693 215.426 101.664 215.586 101.625C215.75 101.586 215.875 101.531 215.961 101.461C216.047 101.387 216.092 101.299 216.096 101.197C216.143 99.9746 216.166 98.7422 216.166 97.5C216.166 96.2344 216.146 95.1426 216.107 94.2246C216.104 94.123 216.059 94.0371 215.973 93.9668C215.887 93.8926 215.762 93.8359 215.598 93.7969C215.438 93.7578 215.301 93.7305 215.188 93.7148C215.078 93.6953 214.934 93.6777 214.754 93.6621C214.738 93.5918 214.73 93.543 214.73 93.5156C214.73 93.4766 214.738 93.4336 214.754 93.3867Z" fill="#EEDBB3"/>
<path d="M224.117 93.3867C224.992 93.418 225.672 93.4336 226.156 93.4336C226.641 93.4336 227.32 93.418 228.195 93.3867C228.211 93.4492 228.219 93.4922 228.219 93.5156C228.219 93.5586 228.211 93.6074 228.195 93.6621C228.016 93.6777 227.869 93.6953 227.756 93.7148C227.646 93.7305 227.51 93.7578 227.346 93.7969C227.186 93.8359 227.062 93.8926 226.977 93.9668C226.891 94.0371 226.846 94.123 226.842 94.2246C226.791 95.5527 226.766 96.7891 226.766 97.9336C226.766 98.7695 226.787 99.8574 226.83 101.197C226.834 101.299 226.879 101.387 226.965 101.461C227.051 101.531 227.174 101.586 227.334 101.625C227.498 101.664 227.635 101.693 227.744 101.713C227.857 101.729 228.004 101.744 228.184 101.76C228.199 101.807 228.207 101.859 228.207 101.918C228.207 101.949 228.199 101.988 228.184 102.035C227.52 102.012 226.84 102 226.145 102C225.441 102 224.762 102.012 224.105 102.035C224.09 101.988 224.082 101.949 224.082 101.918C224.082 101.852 224.09 101.799 224.105 101.76C224.223 101.748 224.316 101.738 224.387 101.73C224.457 101.723 224.553 101.709 224.674 101.689C224.799 101.67 224.898 101.648 224.973 101.625C225.051 101.598 225.131 101.564 225.213 101.525C225.295 101.486 225.355 101.439 225.395 101.385C225.438 101.33 225.459 101.268 225.459 101.197C225.506 99.9746 225.529 98.7422 225.529 97.5C225.529 96.2344 225.51 95.1426 225.471 94.2246C225.467 94.123 225.422 94.0371 225.336 93.9668C225.25 93.8926 225.125 93.8359 224.961 93.7969C224.801 93.7578 224.664 93.7305 224.551 93.7148C224.441 93.6953 224.297 93.6777 224.117 93.6621C224.102 93.5918 224.094 93.543 224.094 93.5156C224.094 93.4766 224.102 93.4336 224.117 93.3867Z" fill="#EEDBB3"/>
<path d="M233.275 93.2988C233.334 93.2559 233.396 93.2285 233.463 93.2168L236.668 101.221C236.707 101.318 236.771 101.402 236.861 101.473C236.951 101.539 237.062 101.592 237.195 101.631C237.332 101.666 237.449 101.693 237.547 101.713C237.648 101.729 237.771 101.744 237.916 101.76C237.932 101.822 237.939 101.875 237.939 101.918C237.939 101.965 237.932 102.008 237.916 102.047C237.072 102.016 236.441 102 236.023 102C235.57 102 234.914 102.016 234.055 102.047C234.039 102 234.031 101.953 234.031 101.906C234.031 101.855 234.039 101.807 234.055 101.76C234.844 101.674 235.238 101.525 235.238 101.314C235.238 101.248 235.23 101.18 235.215 101.109L234.365 98.9297C234.107 98.9219 233.76 98.918 233.322 98.918C233.115 98.918 232.578 98.9258 231.711 98.9414L230.814 101.221V101.291C230.814 101.33 230.82 101.367 230.832 101.402C230.848 101.438 230.871 101.469 230.902 101.496C230.938 101.523 230.971 101.547 231.002 101.566C231.033 101.586 231.076 101.605 231.131 101.625C231.189 101.641 231.238 101.654 231.277 101.666C231.32 101.674 231.377 101.684 231.447 101.695C231.521 101.707 231.578 101.717 231.617 101.725C231.656 101.729 231.713 101.734 231.787 101.742C231.865 101.75 231.92 101.756 231.951 101.76C231.967 101.822 231.975 101.875 231.975 101.918C231.975 101.941 231.967 101.984 231.951 102.047C231.076 102.016 230.584 102 230.475 102C230.264 102 229.721 102.016 228.846 102.047C228.83 102 228.822 101.953 228.822 101.906C228.822 101.855 228.83 101.807 228.846 101.76C229.658 101.666 230.121 101.467 230.234 101.162L232.754 94.8105L232.625 94.4648C232.848 94.3164 233.002 94.1562 233.088 93.9844C233.178 93.8125 233.24 93.584 233.275 93.2988ZM233.322 98.4609C233.682 98.4609 233.965 98.457 234.172 98.4492L233.059 95.5664H233.035L231.916 98.4375C232.283 98.4531 232.752 98.4609 233.322 98.4609Z" fill="#EEDBB3"/>
<path d="M238.637 93.3867C239.512 93.418 240.211 93.4336 240.734 93.4336C241.711 93.4023 242.311 93.3867 242.533 93.3867C242.896 93.3867 243.238 93.4023 243.559 93.4336C243.879 93.4648 244.209 93.5234 244.549 93.6094C244.893 93.6914 245.203 93.8008 245.48 93.9375C245.758 94.0703 246.023 94.248 246.277 94.4707C246.531 94.6934 246.744 94.9512 246.916 95.2441C247.088 95.5371 247.225 95.8906 247.326 96.3047C247.428 96.7148 247.479 97.1699 247.479 97.6699C247.447 98.1504 247.363 98.5918 247.227 98.9941C247.094 99.3965 246.922 99.7441 246.711 100.037C246.504 100.33 246.258 100.592 245.973 100.822C245.688 101.053 245.389 101.24 245.076 101.385C244.768 101.529 244.432 101.648 244.068 101.742C243.709 101.836 243.357 101.902 243.014 101.941C242.674 101.98 242.322 102 241.959 102C240.494 102 239.383 102.012 238.625 102.035C238.609 101.988 238.602 101.949 238.602 101.918C238.602 101.891 238.609 101.838 238.625 101.76C238.742 101.748 238.836 101.738 238.906 101.73C238.977 101.723 239.072 101.709 239.193 101.689C239.318 101.67 239.418 101.648 239.492 101.625C239.57 101.598 239.65 101.564 239.732 101.525C239.814 101.486 239.875 101.439 239.914 101.385C239.957 101.33 239.979 101.268 239.979 101.197C240.025 99.9746 240.049 98.7422 240.049 97.5C240.049 96.2344 240.029 95.1426 239.99 94.2246C239.986 94.123 239.941 94.0371 239.855 93.9668C239.77 93.8926 239.645 93.8359 239.48 93.7969C239.32 93.7578 239.184 93.7305 239.07 93.7148C238.961 93.6953 238.816 93.6777 238.637 93.6621C238.621 93.5918 238.613 93.543 238.613 93.5156C238.613 93.4922 238.621 93.4492 238.637 93.3867ZM241.361 94.2246C241.311 95.5527 241.285 96.7891 241.285 97.9336C241.285 98.5664 241.307 99.7773 241.35 101.566C241.518 101.574 241.758 101.578 242.07 101.578C242.703 101.578 243.266 101.482 243.758 101.291C244.25 101.096 244.654 100.824 244.971 100.477C245.287 100.129 245.525 99.7188 245.686 99.2461C245.85 98.7695 245.932 98.2441 245.932 97.6699C245.932 97.373 245.908 97.082 245.861 96.7969C245.814 96.5117 245.74 96.2207 245.639 95.9238C245.537 95.627 245.396 95.3535 245.217 95.1035C245.037 94.8535 244.822 94.6309 244.572 94.4355C244.326 94.2363 244.021 94.082 243.658 93.9727C243.299 93.8594 242.9 93.8027 242.463 93.8027C242.061 93.8027 241.693 93.8281 241.361 93.8789V94.2246Z" fill="#EEDBB3"/>
<path d="M253.508 93.1875C253.809 93.1875 254.125 93.2188 254.457 93.2812C254.793 93.3438 255.123 93.4473 255.447 93.5918C255.775 93.7324 256.088 93.9199 256.385 94.1543C256.686 94.3848 256.949 94.668 257.176 95.0039C257.402 95.3398 257.582 95.7324 257.715 96.1816C257.852 96.6309 257.92 97.1465 257.92 97.7285C257.92 98.3145 257.854 98.834 257.721 99.2871C257.588 99.7363 257.408 100.129 257.182 100.465C256.955 100.797 256.691 101.078 256.391 101.309C256.094 101.535 255.779 101.719 255.447 101.859C255.119 101.996 254.783 102.094 254.439 102.152C254.096 102.215 253.768 102.246 253.455 102.246C253.158 102.246 252.842 102.215 252.506 102.152C252.174 102.094 251.844 101.996 251.516 101.859C251.188 101.719 250.873 101.535 250.572 101.309C250.275 101.078 250.012 100.797 249.781 100.465C249.555 100.129 249.373 99.7363 249.236 99.2871C249.104 98.834 249.037 98.3145 249.037 97.7285C249.037 97.127 249.107 96.5977 249.248 96.1406C249.389 95.6797 249.574 95.2812 249.805 94.9453C250.039 94.6094 250.309 94.3301 250.613 94.1074C250.922 93.8809 251.24 93.6992 251.568 93.5625C251.9 93.4258 252.232 93.3301 252.564 93.2754C252.9 93.2168 253.215 93.1875 253.508 93.1875ZM253.479 93.6094C253.111 93.6094 252.785 93.6699 252.5 93.791C252.215 93.9121 251.965 94.0762 251.75 94.2832C251.535 94.4863 251.354 94.7246 251.205 94.998C251.057 95.2676 250.936 95.5547 250.842 95.8594C250.752 96.1641 250.686 96.4766 250.643 96.7969C250.604 97.1172 250.584 97.4277 250.584 97.7285C250.584 98.0176 250.604 98.3184 250.643 98.6309C250.682 98.9434 250.746 99.252 250.836 99.5566C250.926 99.8574 251.043 100.145 251.188 100.418C251.336 100.691 251.518 100.932 251.732 101.139C251.947 101.346 252.197 101.512 252.482 101.637C252.771 101.758 253.104 101.818 253.479 101.818C253.846 101.818 254.172 101.76 254.457 101.643C254.742 101.521 254.992 101.359 255.207 101.156C255.422 100.949 255.602 100.711 255.746 100.441C255.895 100.168 256.014 99.8809 256.104 99.5801C256.197 99.2754 256.264 98.9648 256.303 98.6484C256.346 98.332 256.367 98.0254 256.367 97.7285C256.367 97.4277 256.346 97.1172 256.303 96.7969C256.264 96.4766 256.197 96.1641 256.104 95.8594C256.014 95.5547 255.895 95.2676 255.746 94.998C255.598 94.7246 255.416 94.4863 255.201 94.2832C254.986 94.0762 254.736 93.9121 254.451 93.791C254.166 93.6699 253.842 93.6094 253.479 93.6094Z" fill="#EEDBB3"/>
<path d="M264.793 95.8652C264.645 95.1504 264.371 94.5957 263.973 94.2012C263.578 93.8066 263.104 93.6094 262.549 93.6094C262.006 93.6094 261.584 93.7383 261.283 93.9961C260.986 94.2539 260.838 94.5977 260.838 95.0273C260.838 95.2656 260.859 95.4629 260.902 95.6191C260.945 95.7754 261.033 95.9277 261.166 96.0762C261.299 96.2207 261.492 96.3496 261.746 96.4629C262 96.5723 262.332 96.6777 262.742 96.7793C262.965 96.834 263.158 96.8848 263.322 96.9316C263.49 96.9785 263.674 97.043 263.873 97.125C264.076 97.207 264.25 97.2949 264.395 97.3887C264.543 97.4824 264.689 97.5996 264.834 97.7402C264.982 97.877 265.102 98.0293 265.191 98.1973C265.285 98.3652 265.359 98.5645 265.414 98.7949C265.473 99.0215 265.502 99.2695 265.502 99.5391C265.502 99.8984 265.436 100.23 265.303 100.535C265.17 100.836 264.996 101.09 264.781 101.297C264.566 101.504 264.318 101.68 264.037 101.824C263.756 101.969 263.471 102.074 263.182 102.141C262.893 102.207 262.605 102.24 262.32 102.24C261.453 102.24 260.529 102.016 259.549 101.566C259.568 101.145 259.578 100.885 259.578 100.787C259.578 100.15 259.525 99.5156 259.42 98.8828C259.463 98.8555 259.506 98.8418 259.549 98.8418C259.604 98.8418 259.652 98.8555 259.695 98.8828C259.777 99.3867 259.912 99.832 260.1 100.219C260.291 100.605 260.51 100.912 260.756 101.139C261.002 101.361 261.256 101.529 261.518 101.643C261.783 101.752 262.051 101.807 262.32 101.807C262.934 101.807 263.404 101.648 263.732 101.332C264.064 101.012 264.23 100.59 264.23 100.066C264.23 99.5391 264.107 99.1426 263.861 98.877C263.619 98.6074 263.154 98.3887 262.467 98.2207C261.607 98.0059 260.936 97.6895 260.451 97.2715C259.971 96.8496 259.73 96.293 259.73 95.6016C259.73 95.2383 259.789 94.9141 259.906 94.6289C260.027 94.3398 260.182 94.1094 260.369 93.9375C260.561 93.7617 260.783 93.6172 261.037 93.5039C261.291 93.3867 261.541 93.3066 261.787 93.2637C262.037 93.2168 262.291 93.1934 262.549 93.1934C263.322 93.1934 264.127 93.373 264.963 93.7324C264.939 93.9629 264.928 94.2031 264.928 94.4531C264.928 95.0391 264.975 95.5098 265.068 95.8652C265.018 95.8848 264.975 95.8945 264.939 95.8945C264.9 95.8945 264.852 95.8848 264.793 95.8652Z" fill="#EEDBB3"/>
<path d="M129.883 7.77344C131.117 7.77344 132.344 7.85938 133.562 8.03125C134.797 8.1875 135.977 8.38281 137.102 8.61719C138.242 8.83594 139.32 9.05469 140.336 9.27344C141.352 9.49219 142.266 9.64844 143.078 9.74219C142.891 10.3047 142.797 11.2969 142.797 12.7188C142.797 15.4844 143.211 17.8828 144.039 19.9141C143.945 20.1953 143.656 20.3672 143.172 20.4297L142.164 18.2734C141.664 17.1953 141.062 16.1328 140.359 15.0859C139.656 14.0234 138.812 13.0781 137.828 12.25C136.844 11.4062 135.695 10.7266 134.383 10.2109C133.086 9.69531 131.586 9.4375 129.883 9.4375C128.414 9.4375 127.109 9.67969 125.969 10.1641C124.828 10.6484 123.828 11.3047 122.969 12.1328C122.109 12.9453 121.383 13.8984 120.789 14.9922C120.195 16.0703 119.711 17.2188 119.336 18.4375C118.977 19.6562 118.711 20.9062 118.539 22.1875C118.383 23.4688 118.305 24.7109 118.305 25.9141C118.305 27.9141 118.562 29.8281 119.078 31.6562C119.609 33.4844 120.43 35.1016 121.539 36.5078C122.648 37.8984 124.055 39.0078 125.758 39.8359C127.477 40.6641 129.523 41.0781 131.898 41.0781C136.445 41.0781 139.883 39.6562 142.211 36.8125C142.461 36.8125 142.664 36.8828 142.82 37.0234C142.992 37.1641 143.078 37.3359 143.078 37.5391C142.328 38.6484 141.414 39.6094 140.336 40.4219C139.273 41.2344 138.141 41.9062 136.938 42.4375C135.734 42.9531 134.516 43.3359 133.281 43.5859C132.062 43.8359 130.93 43.9609 129.883 43.9609C128.742 43.9609 127.508 43.8359 126.18 43.5859C124.867 43.3516 123.547 42.9531 122.219 42.3906C120.906 41.8281 119.641 41.0938 118.422 40.1875C117.219 39.2656 116.148 38.1406 115.211 36.8125C114.273 35.4688 113.523 33.8984 112.961 32.1016C112.398 30.3047 112.117 28.2422 112.117 25.9141C112.117 23.5703 112.398 21.5 112.961 19.7031C113.523 17.8906 114.273 16.3125 115.211 14.9688C116.164 13.625 117.25 12.5 118.469 11.5938C119.703 10.6719 120.977 9.92969 122.289 9.36719C123.602 8.78906 124.914 8.38281 126.227 8.14844C127.539 7.89844 128.758 7.77344 129.883 7.77344Z" fill="#EEDBB3"/>
<path d="M166.375 7.75C167.578 7.75 168.844 7.875 170.172 8.125C171.516 8.375 172.836 8.78906 174.133 9.36719C175.445 9.92969 176.695 10.6797 177.883 11.6172C179.086 12.5391 180.141 13.6719 181.047 15.0156C181.953 16.3594 182.672 17.9297 183.203 19.7266C183.75 21.5234 184.023 23.5859 184.023 25.9141C184.023 28.2578 183.758 30.3359 183.227 32.1484C182.695 33.9453 181.977 35.5156 181.07 36.8594C180.164 38.1875 179.109 39.3125 177.906 40.2344C176.719 41.1406 175.461 41.875 174.133 42.4375C172.82 42.9844 171.477 43.375 170.102 43.6094C168.727 43.8594 167.414 43.9844 166.164 43.9844C164.977 43.9844 163.711 43.8594 162.367 43.6094C161.039 43.375 159.719 42.9844 158.406 42.4375C157.094 41.875 155.836 41.1406 154.633 40.2344C153.445 39.3125 152.391 38.1875 151.469 36.8594C150.562 35.5156 149.836 33.9453 149.289 32.1484C148.758 30.3359 148.492 28.2578 148.492 25.9141C148.492 23.5078 148.773 21.3906 149.336 19.5625C149.898 17.7188 150.641 16.125 151.562 14.7812C152.5 13.4375 153.578 12.3203 154.797 11.4297C156.031 10.5234 157.305 9.79688 158.617 9.25C159.945 8.70312 161.273 8.32031 162.602 8.10156C163.945 7.86719 165.203 7.75 166.375 7.75ZM166.258 9.4375C164.789 9.4375 163.484 9.67969 162.344 10.1641C161.203 10.6484 160.203 11.3047 159.344 12.1328C158.484 12.9453 157.758 13.8984 157.164 14.9922C156.57 16.0703 156.086 17.2188 155.711 18.4375C155.352 19.6562 155.086 20.9062 154.914 22.1875C154.758 23.4688 154.68 24.7109 154.68 25.9141C154.68 27.0703 154.758 28.2734 154.914 29.5234C155.07 30.7734 155.328 32.0078 155.688 33.2266C156.047 34.4297 156.516 35.5781 157.094 36.6719C157.688 37.7656 158.414 38.7266 159.273 39.5547C160.133 40.3828 161.133 41.0469 162.273 41.5469C163.43 42.0312 164.758 42.2734 166.258 42.2734C167.727 42.2734 169.031 42.0391 170.172 41.5703C171.312 41.0859 172.312 40.4375 173.172 39.625C174.031 38.7969 174.75 37.8438 175.328 36.7656C175.922 35.6719 176.398 34.5234 176.758 33.3203C177.133 32.1016 177.398 30.8594 177.555 29.5938C177.727 28.3281 177.812 27.1016 177.812 25.9141C177.812 24.7109 177.727 23.4688 177.555 22.1875C177.398 20.9062 177.133 19.6562 176.758 18.4375C176.398 17.2188 175.922 16.0703 175.328 14.9922C174.734 13.8984 174.008 12.9453 173.148 12.1328C172.289 11.3047 171.289 10.6484 170.148 10.1641C169.008 9.67969 167.711 9.4375 166.258 9.4375Z" fill="#EEDBB3"/>
<path d="M188.969 8.54688C192.344 8.67188 195.062 8.73438 197.125 8.73438C197.906 8.73438 199.164 8.70312 200.898 8.64062C202.633 8.57812 203.969 8.54688 204.906 8.54688C208.375 8.54688 211.102 9.42188 213.086 11.1719C215.086 12.9219 216.086 15.1953 216.086 17.9922C216.086 20.2422 215.422 22.2578 214.094 24.0391C212.766 25.8047 210.953 27.0703 208.656 27.8359C209.703 29.7109 211.141 31.8359 212.969 34.2109C214.734 36.5703 216.414 38.4219 218.008 39.7656C219.617 41.1094 221.344 41.8672 223.188 42.0391C223.25 42.2891 223.281 42.4844 223.281 42.625C223.281 42.7812 223.25 42.9531 223.188 43.1406C222.25 43.0938 221.25 43.0625 220.188 43.0469C219.125 43.0312 217.938 43.0234 216.625 43.0234C215.328 43.0234 214.328 43.0156 213.625 43C209.422 38.1094 206.047 33.2969 203.5 28.5625C202.359 28.5625 201.047 28.3828 199.562 28.0234C199.562 31.0547 199.648 34.9766 199.82 39.7891C199.836 40.1953 200.016 40.5469 200.359 40.8438C200.703 41.125 201.195 41.3438 201.836 41.5C202.492 41.6562 203.039 41.7734 203.477 41.8516C203.93 41.9141 204.516 41.9766 205.234 42.0391C205.297 42.3516 205.328 42.5625 205.328 42.6719C205.328 42.7969 205.297 42.9531 205.234 43.1406C202.578 43.0469 199.859 43 197.078 43C194.266 43 191.547 43.0469 188.922 43.1406C188.859 42.9531 188.828 42.7969 188.828 42.6719C188.828 42.4062 188.859 42.1953 188.922 42.0391C189.391 41.9922 189.766 41.9531 190.047 41.9219C190.328 41.8906 190.711 41.8359 191.195 41.7578C191.695 41.6797 192.094 41.5938 192.391 41.5C192.703 41.3906 193.023 41.2578 193.352 41.1016C193.68 40.9453 193.922 40.7578 194.078 40.5391C194.25 40.3203 194.336 40.0703 194.336 39.7891C194.523 34.8984 194.617 29.9688 194.617 25C194.617 19.9375 194.539 15.5703 194.383 11.8984C194.367 11.4922 194.188 11.1484 193.844 10.8672C193.5 10.5703 193 10.3438 192.344 10.1875C191.703 10.0312 191.156 9.92188 190.703 9.85938C190.266 9.78125 189.688 9.71094 188.969 9.64844C188.906 9.36719 188.875 9.17188 188.875 9.0625C188.875 8.96875 188.906 8.79688 188.969 8.54688ZM199.867 10.1641H199.82C199.648 15.9297 199.562 21.2891 199.562 26.2422C200.656 26.6016 201.766 26.7812 202.891 26.7812C203.922 26.7812 204.844 26.6094 205.656 26.2656C206.484 25.9062 207.164 25.4375 207.695 24.8594C208.227 24.2812 208.664 23.6016 209.008 22.8203C209.367 22.0391 209.617 21.25 209.758 20.4531C209.914 19.6562 209.992 18.8359 209.992 17.9922C209.992 15.6641 209.352 13.7656 208.07 12.2969C206.805 10.8125 205 10.0703 202.656 10.0703C201.5 10.0703 200.57 10.1016 199.867 10.1641Z" fill="#EEDBB3"/>
<path d="M225.344 8.54688C228.719 8.67188 231.438 8.73438 233.5 8.73438C234.281 8.73438 235.539 8.70312 237.273 8.64062C239.008 8.57812 240.344 8.54688 241.281 8.54688C244.75 8.54688 247.477 9.42188 249.461 11.1719C251.461 12.9219 252.461 15.1953 252.461 17.9922C252.461 20.2422 251.797 22.2578 250.469 24.0391C249.141 25.8047 247.328 27.0703 245.031 27.8359C246.078 29.7109 247.516 31.8359 249.344 34.2109C251.109 36.5703 252.789 38.4219 254.383 39.7656C255.992 41.1094 257.719 41.8672 259.562 42.0391C259.625 42.2891 259.656 42.4844 259.656 42.625C259.656 42.7812 259.625 42.9531 259.562 43.1406C258.625 43.0938 257.625 43.0625 256.562 43.0469C255.5 43.0312 254.312 43.0234 253 43.0234C251.703 43.0234 250.703 43.0156 250 43C245.797 38.1094 242.422 33.2969 239.875 28.5625C238.734 28.5625 237.422 28.3828 235.938 28.0234C235.938 31.0547 236.023 34.9766 236.195 39.7891C236.211 40.1953 236.391 40.5469 236.734 40.8438C237.078 41.125 237.57 41.3438 238.211 41.5C238.867 41.6562 239.414 41.7734 239.852 41.8516C240.305 41.9141 240.891 41.9766 241.609 42.0391C241.672 42.3516 241.703 42.5625 241.703 42.6719C241.703 42.7969 241.672 42.9531 241.609 43.1406C238.953 43.0469 236.234 43 233.453 43C230.641 43 227.922 43.0469 225.297 43.1406C225.234 42.9531 225.203 42.7969 225.203 42.6719C225.203 42.4062 225.234 42.1953 225.297 42.0391C225.766 41.9922 226.141 41.9531 226.422 41.9219C226.703 41.8906 227.086 41.8359 227.57 41.7578C228.07 41.6797 228.469 41.5938 228.766 41.5C229.078 41.3906 229.398 41.2578 229.727 41.1016C230.055 40.9453 230.297 40.7578 230.453 40.5391C230.625 40.3203 230.711 40.0703 230.711 39.7891C230.898 34.8984 230.992 29.9688 230.992 25C230.992 19.9375 230.914 15.5703 230.758 11.8984C230.742 11.4922 230.562 11.1484 230.219 10.8672C229.875 10.5703 229.375 10.3438 228.719 10.1875C228.078 10.0312 227.531 9.92188 227.078 9.85938C226.641 9.78125 226.062 9.71094 225.344 9.64844C225.281 9.36719 225.25 9.17188 225.25 9.0625C225.25 8.96875 225.281 8.79688 225.344 8.54688ZM236.242 10.1641H236.195C236.023 15.9297 235.938 21.2891 235.938 26.2422C237.031 26.6016 238.141 26.7812 239.266 26.7812C240.297 26.7812 241.219 26.6094 242.031 26.2656C242.859 25.9062 243.539 25.4375 244.07 24.8594C244.602 24.2812 245.039 23.6016 245.383 22.8203C245.742 22.0391 245.992 21.25 246.133 20.4531C246.289 19.6562 246.367 18.8359 246.367 17.9922C246.367 15.6641 245.727 13.7656 244.445 12.2969C243.18 10.8125 241.375 10.0703 239.031 10.0703C237.875 10.0703 236.945 10.1016 236.242 10.1641Z" fill="#EEDBB3"/>
<path d="M261.719 8.54688C265.219 8.67188 267.953 8.73438 269.922 8.73438C283.328 8.65625 290.75 8.59375 292.188 8.54688C292.391 10.1094 292.789 11.5938 293.383 13C293.977 14.3906 294.734 15.875 295.656 17.4531C295.531 17.7188 295.258 17.9297 294.836 18.0859C294.273 17.0234 293.594 16.0781 292.797 15.25C292 14.4219 290.992 13.6406 289.773 12.9062C288.57 12.1719 287.062 11.5703 285.25 11.1016C283.453 10.6328 281.398 10.3203 279.086 10.1641H272.617C272.414 16.7734 272.312 21.75 272.312 25.0938H278.992C279.445 25.0938 279.867 25.0625 280.258 25C280.664 24.9219 281.039 24.7969 281.383 24.625C281.727 24.4375 282.031 24.2656 282.297 24.1094C282.578 23.9375 282.859 23.6875 283.141 23.3594C283.422 23.0156 283.656 22.7344 283.844 22.5156C284.031 22.2812 284.258 21.9297 284.523 21.4609C284.789 20.9922 284.992 20.625 285.133 20.3594C285.273 20.0938 285.484 19.6797 285.766 19.1172C286.062 18.5547 286.289 18.1328 286.445 17.8516C286.93 18.0391 287.227 18.2422 287.336 18.4609C286.68 19.6172 286.125 20.8984 285.672 22.3047C285.219 23.7109 284.992 24.8828 284.992 25.8203C284.992 28.0391 285.773 30.4844 287.336 33.1562C287.211 33.4062 286.914 33.6172 286.445 33.7891C286.273 33.4766 286.031 33.0312 285.719 32.4531C285.422 31.8594 285.188 31.4062 285.016 31.0938C284.844 30.7812 284.609 30.3828 284.312 29.8984C284.016 29.4141 283.75 29.0391 283.516 28.7734C283.297 28.5078 283.008 28.2109 282.648 27.8828C282.305 27.5547 281.961 27.3125 281.617 27.1562C281.273 26.9844 280.875 26.8438 280.422 26.7344C279.984 26.6094 279.508 26.5469 278.992 26.5469H272.312C272.312 29.0312 272.398 34.0391 272.57 41.5703H280.047C282.359 41.4141 284.414 41.1016 286.211 40.6328C288.023 40.1641 289.531 39.5625 290.734 38.8281C291.953 38.0938 292.961 37.3125 293.758 36.4844C294.555 35.6562 295.234 34.7109 295.797 33.6484C296.219 33.8047 296.492 34.0078 296.617 34.2578C296.539 34.4141 296.336 34.7891 296.008 35.3828C295.68 35.9766 295.461 36.3828 295.352 36.6016C295.242 36.8047 295.055 37.1719 294.789 37.7031C294.539 38.2188 294.352 38.6406 294.227 38.9688C294.102 39.2812 293.953 39.6797 293.781 40.1641C293.625 40.6484 293.492 41.125 293.383 41.5938C293.289 42.0469 293.211 42.5156 293.148 43H272.57C268.336 43 264.703 43.0469 261.672 43.1406C261.609 42.9531 261.578 42.7969 261.578 42.6719C261.578 42.5625 261.609 42.3516 261.672 42.0391C262.391 41.9766 262.969 41.9141 263.406 41.8516C263.859 41.7734 264.406 41.6562 265.047 41.5C265.703 41.3438 266.203 41.125 266.547 40.8438C266.891 40.5469 267.07 40.1953 267.086 39.7891C267.273 34.8984 267.367 29.9688 267.367 25C267.367 19.9375 267.289 15.5703 267.133 11.8984C267.117 11.4922 266.938 11.1484 266.594 10.8672C266.25 10.5703 265.75 10.3438 265.094 10.1875C264.453 10.0312 263.906 9.92188 263.453 9.85938C263.016 9.78125 262.438 9.71094 261.719 9.64844C261.656 9.36719 261.625 9.17188 261.625 9.0625C261.625 8.96875 261.656 8.79688 261.719 8.54688Z" fill="#EEDBB3"/>
<path d="M316.117 8.19531C316.352 8.02344 316.602 7.91406 316.867 7.86719L329.688 39.8828C329.844 40.2734 330.102 40.6094 330.461 40.8906C330.82 41.1562 331.266 41.3672 331.797 41.5234C332.344 41.6641 332.812 41.7734 333.203 41.8516C333.609 41.9141 334.102 41.9766 334.68 42.0391C334.742 42.2891 334.773 42.5 334.773 42.6719C334.773 42.8594 334.742 43.0312 334.68 43.1875C331.305 43.0625 328.781 43 327.109 43C325.297 43 322.672 43.0625 319.234 43.1875C319.172 43 319.141 42.8125 319.141 42.625C319.141 42.4219 319.172 42.2266 319.234 42.0391C322.391 41.6953 323.969 41.1016 323.969 40.2578C323.969 39.9922 323.938 39.7188 323.875 39.4375L320.477 30.7188C319.445 30.6875 318.055 30.6719 316.305 30.6719C315.477 30.6719 313.328 30.7031 309.859 30.7656L306.273 39.8828V40.1641C306.273 40.3203 306.297 40.4688 306.344 40.6094C306.406 40.75 306.5 40.875 306.625 40.9844C306.766 41.0938 306.898 41.1875 307.023 41.2656C307.148 41.3438 307.32 41.4219 307.539 41.5C307.773 41.5625 307.969 41.6172 308.125 41.6641C308.297 41.6953 308.523 41.7344 308.805 41.7812C309.102 41.8281 309.328 41.8672 309.484 41.8984C309.641 41.9141 309.867 41.9375 310.164 41.9688C310.477 42 310.695 42.0234 310.82 42.0391C310.883 42.2891 310.914 42.5 310.914 42.6719C310.914 42.7656 310.883 42.9375 310.82 43.1875C307.32 43.0625 305.352 43 304.914 43C304.07 43 301.898 43.0625 298.398 43.1875C298.336 43 298.305 42.8125 298.305 42.625C298.305 42.4219 298.336 42.2266 298.398 42.0391C301.648 41.6641 303.5 40.8672 303.953 39.6484L314.031 14.2422L313.516 12.8594C314.406 12.2656 315.023 11.625 315.367 10.9375C315.727 10.25 315.977 9.33594 316.117 8.19531ZM316.305 28.8438C317.742 28.8438 318.875 28.8281 319.703 28.7969L315.25 17.2656H315.156L310.68 28.75C312.148 28.8125 314.023 28.8438 316.305 28.8438Z" fill="#EEDBB3"/>
<path d="M112.828 49.5469C116.328 49.6719 119.047 49.7344 120.984 49.7344C122.922 49.7344 125.641 49.6719 129.141 49.5469C129.203 49.7969 129.234 49.9688 129.234 50.0625C129.234 50.1719 129.203 50.3672 129.141 50.6484C128.422 50.7109 127.836 50.7812 127.383 50.8594C126.945 50.9219 126.398 51.0312 125.742 51.1875C125.102 51.3438 124.609 51.5703 124.266 51.8672C123.922 52.1484 123.742 52.4922 123.727 52.8984C123.523 57.5703 123.422 61.9219 123.422 65.9531C125.156 66.0156 127.781 66.0469 131.297 66.0469C134.172 66.0469 137.055 66 139.945 65.9062C139.883 60.0938 139.805 55.7578 139.711 52.8984C139.695 52.4922 139.516 52.1484 139.172 51.8672C138.828 51.5703 138.328 51.3438 137.672 51.1875C137.016 51.0312 136.461 50.9219 136.008 50.8594C135.57 50.7812 134.992 50.7109 134.273 50.6484C134.211 50.3672 134.18 50.1719 134.18 50.0625C134.18 49.9688 134.211 49.7969 134.273 49.5469C137.805 49.6719 140.523 49.7344 142.43 49.7344C144.352 49.7344 147.078 49.6719 150.609 49.5469C150.672 49.7969 150.703 49.9688 150.703 50.0625C150.703 50.1719 150.672 50.3672 150.609 50.6484C149.891 50.7109 149.305 50.7812 148.852 50.8594C148.414 50.9219 147.867 51.0312 147.211 51.1875C146.555 51.3438 146.055 51.5703 145.711 51.8672C145.367 52.1484 145.188 52.4922 145.172 52.8984C145.016 56.7891 144.938 61.4453 144.938 66.8672C144.938 72.2578 145.016 76.8984 145.172 80.7891C145.188 81.1953 145.367 81.5469 145.711 81.8438C146.055 82.125 146.555 82.3438 147.211 82.5C147.867 82.6562 148.414 82.7734 148.852 82.8516C149.305 82.9141 149.891 82.9766 150.609 83.0391C150.672 83.2891 150.703 83.5 150.703 83.6719C150.703 83.7969 150.672 83.9531 150.609 84.1406C147.953 84.0469 145.227 84 142.43 84C139.633 84 136.914 84.0469 134.273 84.1406C134.211 83.9531 134.18 83.7969 134.18 83.6719C134.18 83.4062 134.211 83.1953 134.273 83.0391C134.992 82.9766 135.578 82.9141 136.031 82.8516C136.484 82.7734 137.039 82.6562 137.695 82.5C138.352 82.3438 138.852 82.125 139.195 81.8438C139.539 81.5469 139.711 81.1953 139.711 80.7891C139.836 75.2109 139.914 70.9844 139.945 68.1094C137.055 68.0156 134.172 67.9688 131.297 67.9688C129.516 67.9688 126.891 68 123.422 68.0625C123.422 71.3906 123.508 75.6328 123.68 80.7891C123.695 81.1953 123.875 81.5469 124.219 81.8438C124.562 82.125 125.055 82.3438 125.695 82.5C126.352 82.6562 126.898 82.7734 127.336 82.8516C127.789 82.9141 128.375 82.9766 129.094 83.0391C129.156 83.3516 129.188 83.5625 129.188 83.6719C129.188 83.7969 129.156 83.9531 129.094 84.1406C126.438 84.0469 123.719 84 120.938 84C118.125 84 115.406 84.0469 112.781 84.1406C112.719 83.9531 112.688 83.7969 112.688 83.6719C112.688 83.4062 112.719 83.1953 112.781 83.0391C113.5 82.9766 114.078 82.9141 114.516 82.8516C114.969 82.7734 115.516 82.6562 116.156 82.5C116.812 82.3438 117.312 82.125 117.656 81.8438C118 81.5469 118.18 81.1953 118.195 80.7891C118.383 75.8984 118.477 70.9688 118.477 66C118.477 60.9375 118.398 56.5703 118.242 52.8984C118.227 52.4922 118.047 52.1484 117.703 51.8672C117.359 51.5703 116.859 51.3438 116.203 51.1875C115.562 51.0312 115.016 50.9219 114.562 50.8594C114.125 50.7812 113.547 50.7109 112.828 50.6484C112.766 50.3672 112.734 50.1719 112.734 50.0625C112.734 49.9062 112.766 49.7344 112.828 49.5469Z" fill="#EEDBB3"/>
<path d="M173.391 48.75C174.594 48.75 175.859 48.875 177.188 49.125C178.531 49.375 179.852 49.7891 181.148 50.3672C182.461 50.9297 183.711 51.6797 184.898 52.6172C186.102 53.5391 187.156 54.6719 188.062 56.0156C188.969 57.3594 189.688 58.9297 190.219 60.7266C190.766 62.5234 191.039 64.5859 191.039 66.9141C191.039 69.2578 190.773 71.3359 190.242 73.1484C189.711 74.9453 188.992 76.5156 188.086 77.8594C187.18 79.1875 186.125 80.3125 184.922 81.2344C183.734 82.1406 182.477 82.875 181.148 83.4375C179.836 83.9844 178.492 84.375 177.117 84.6094C175.742 84.8594 174.43 84.9844 173.18 84.9844C171.992 84.9844 170.727 84.8594 169.383 84.6094C168.055 84.375 166.734 83.9844 165.422 83.4375C164.109 82.875 162.852 82.1406 161.648 81.2344C160.461 80.3125 159.406 79.1875 158.484 77.8594C157.578 76.5156 156.852 74.9453 156.305 73.1484C155.773 71.3359 155.508 69.2578 155.508 66.9141C155.508 64.5078 155.789 62.3906 156.352 60.5625C156.914 58.7188 157.656 57.125 158.578 55.7812C159.516 54.4375 160.594 53.3203 161.812 52.4297C163.047 51.5234 164.32 50.7969 165.633 50.25C166.961 49.7031 168.289 49.3203 169.617 49.1016C170.961 48.8672 172.219 48.75 173.391 48.75ZM173.273 50.4375C171.805 50.4375 170.5 50.6797 169.359 51.1641C168.219 51.6484 167.219 52.3047 166.359 53.1328C165.5 53.9453 164.773 54.8984 164.18 55.9922C163.586 57.0703 163.102 58.2188 162.727 59.4375C162.367 60.6562 162.102 61.9062 161.93 63.1875C161.773 64.4688 161.695 65.7109 161.695 66.9141C161.695 68.0703 161.773 69.2734 161.93 70.5234C162.086 71.7734 162.344 73.0078 162.703 74.2266C163.062 75.4297 163.531 76.5781 164.109 77.6719C164.703 78.7656 165.43 79.7266 166.289 80.5547C167.148 81.3828 168.148 82.0469 169.289 82.5469C170.445 83.0312 171.773 83.2734 173.273 83.2734C174.742 83.2734 176.047 83.0391 177.188 82.5703C178.328 82.0859 179.328 81.4375 180.188 80.625C181.047 79.7969 181.766 78.8438 182.344 77.7656C182.938 76.6719 183.414 75.5234 183.773 74.3203C184.148 73.1016 184.414 71.8594 184.57 70.5938C184.742 69.3281 184.828 68.1016 184.828 66.9141C184.828 65.7109 184.742 64.4688 184.57 63.1875C184.414 61.9062 184.148 60.6562 183.773 59.4375C183.414 58.2188 182.938 57.0703 182.344 55.9922C181.75 54.8984 181.023 53.9453 180.164 53.1328C179.305 52.3047 178.305 51.6484 177.164 51.1641C176.023 50.6797 174.727 50.4375 173.273 50.4375Z" fill="#EEDBB3"/>
<path d="M195.211 49.5469C197.852 49.6406 200.57 49.6875 203.367 49.6875C206.18 49.6875 208.898 49.6406 211.523 49.5469C211.586 49.7969 211.617 49.9688 211.617 50.0625C211.617 50.1719 211.586 50.3672 211.523 50.6484C211.055 50.6953 210.68 50.7344 210.398 50.7656C210.117 50.7969 209.727 50.8516 209.227 50.9297C208.742 51.0078 208.344 51.1016 208.031 51.2109C207.734 51.3047 207.422 51.4297 207.094 51.5859C206.766 51.7422 206.516 51.9297 206.344 52.1484C206.188 52.3672 206.109 52.6172 206.109 52.8984C206.047 54.9766 206.016 60.6875 206.016 70.0312C206.016 74.4844 206.758 77.7188 208.242 79.7344C209.742 81.75 212.281 82.7578 215.859 82.7578C219.469 82.7578 222.25 81.6641 224.203 79.4766C226.156 77.2734 227.133 74.125 227.133 70.0312C227.133 62.5781 227.086 56.9766 226.992 53.2266C226.961 51.8203 225.234 50.9609 221.812 50.6484C221.75 50.3047 221.719 50.0938 221.719 50.0156C221.719 49.8906 221.75 49.7344 221.812 49.5469C224.297 49.6406 226.516 49.6875 228.469 49.6875C229.719 49.6875 231.82 49.6406 234.773 49.5469C234.836 49.7344 234.867 49.8906 234.867 50.0156C234.867 50.2656 234.836 50.4766 234.773 50.6484C231.383 50.9609 229.648 51.8203 229.57 53.2266C229.414 56.9453 229.336 62.5469 229.336 70.0312C229.336 72.3125 229.039 74.3516 228.445 76.1484C227.852 77.9297 227.094 79.3594 226.172 80.4375C225.25 81.5156 224.172 82.4062 222.938 83.1094C221.719 83.8125 220.539 84.2969 219.398 84.5625C218.258 84.8281 217.109 84.9609 215.953 84.9609C214.406 84.9609 213.016 84.875 211.781 84.7031C210.547 84.5312 209.344 84.2422 208.172 83.8359C207 83.4141 205.984 82.8359 205.125 82.1016C204.266 81.3516 203.508 80.4375 202.852 79.3594C202.195 78.2812 201.703 76.9609 201.375 75.3984C201.047 73.8359 200.883 72.0469 200.883 70.0312V66.1875C200.883 60.9531 200.797 56.5234 200.625 52.8984C200.609 52.4922 200.43 52.1484 200.086 51.8672C199.742 51.5703 199.242 51.3438 198.586 51.1875C197.945 51.0312 197.398 50.9219 196.945 50.8594C196.508 50.7812 195.93 50.7109 195.211 50.6484C195.148 50.3672 195.117 50.1719 195.117 50.0625C195.117 49.9688 195.148 49.7969 195.211 49.5469Z" fill="#EEDBB3"/>
<path d="M259.969 59.4609C259.375 56.6016 258.281 54.3828 256.688 52.8047C255.109 51.2266 253.211 50.4375 250.992 50.4375C248.82 50.4375 247.133 50.9531 245.93 51.9844C244.742 53.0156 244.148 54.3906 244.148 56.1094C244.148 57.0625 244.234 57.8516 244.406 58.4766C244.578 59.1016 244.93 59.7109 245.461 60.3047C245.992 60.8828 246.766 61.3984 247.781 61.8516C248.797 62.2891 250.125 62.7109 251.766 63.1172C252.656 63.3359 253.43 63.5391 254.086 63.7266C254.758 63.9141 255.492 64.1719 256.289 64.5C257.102 64.8281 257.797 65.1797 258.375 65.5547C258.969 65.9297 259.555 66.3984 260.133 66.9609C260.727 67.5078 261.203 68.1172 261.562 68.7891C261.938 69.4609 262.234 70.2578 262.453 71.1797C262.688 72.0859 262.805 73.0781 262.805 74.1562C262.805 75.5938 262.539 76.9219 262.008 78.1406C261.477 79.3438 260.781 80.3594 259.922 81.1875C259.062 82.0156 258.07 82.7188 256.945 83.2969C255.82 83.875 254.68 84.2969 253.523 84.5625C252.367 84.8281 251.219 84.9609 250.078 84.9609C246.609 84.9609 242.914 84.0625 238.992 82.2656C239.07 80.5781 239.109 79.5391 239.109 79.1484C239.109 76.6016 238.898 74.0625 238.477 71.5312C238.648 71.4219 238.82 71.3672 238.992 71.3672C239.211 71.3672 239.406 71.4219 239.578 71.5312C239.906 73.5469 240.445 75.3281 241.195 76.875C241.961 78.4219 242.836 79.6484 243.82 80.5547C244.805 81.4453 245.82 82.1172 246.867 82.5703C247.93 83.0078 249 83.2266 250.078 83.2266C252.531 83.2266 254.414 82.5938 255.727 81.3281C257.055 80.0469 257.719 78.3594 257.719 76.2656C257.719 74.1562 257.227 72.5703 256.242 71.5078C255.273 70.4297 253.414 69.5547 250.664 68.8828C247.227 68.0234 244.539 66.7578 242.602 65.0859C240.68 63.3984 239.719 61.1719 239.719 58.4062C239.719 56.9531 239.953 55.6562 240.422 54.5156C240.906 53.3594 241.523 52.4375 242.273 51.75C243.039 51.0469 243.93 50.4688 244.945 50.0156C245.961 49.5469 246.961 49.2266 247.945 49.0547C248.945 48.8672 249.961 48.7734 250.992 48.7734C254.086 48.7734 257.305 49.4922 260.648 50.9297C260.555 51.8516 260.508 52.8125 260.508 53.8125C260.508 56.1562 260.695 58.0391 261.07 59.4609C260.867 59.5391 260.695 59.5781 260.555 59.5781C260.398 59.5781 260.203 59.5391 259.969 59.4609Z" fill="#EEDBB3"/>
<path d="M267.516 49.5469C271.016 49.6719 273.75 49.7344 275.719 49.7344C289.125 49.6562 296.547 49.5938 297.984 49.5469C298.188 51.1094 298.586 52.5938 299.18 54C299.773 55.3906 300.531 56.875 301.453 58.4531C301.328 58.7188 301.055 58.9297 300.633 59.0859C300.07 58.0234 299.391 57.0781 298.594 56.25C297.797 55.4219 296.789 54.6406 295.57 53.9062C294.367 53.1719 292.859 52.5703 291.047 52.1016C289.25 51.6328 287.195 51.3203 284.883 51.1641H278.414C278.211 57.7734 278.109 62.75 278.109 66.0938H284.789C285.242 66.0938 285.664 66.0625 286.055 66C286.461 65.9219 286.836 65.7969 287.18 65.625C287.523 65.4375 287.828 65.2656 288.094 65.1094C288.375 64.9375 288.656 64.6875 288.938 64.3594C289.219 64.0156 289.453 63.7344 289.641 63.5156C289.828 63.2812 290.055 62.9297 290.32 62.4609C290.586 61.9922 290.789 61.625 290.93 61.3594C291.07 61.0938 291.281 60.6797 291.562 60.1172C291.859 59.5547 292.086 59.1328 292.242 58.8516C292.727 59.0391 293.023 59.2422 293.133 59.4609C292.477 60.6172 291.922 61.8984 291.469 63.3047C291.016 64.7109 290.789 65.8828 290.789 66.8203C290.789 69.0391 291.57 71.4844 293.133 74.1562C293.008 74.4062 292.711 74.6172 292.242 74.7891C292.07 74.4766 291.828 74.0312 291.516 73.4531C291.219 72.8594 290.984 72.4062 290.812 72.0938C290.641 71.7812 290.406 71.3828 290.109 70.8984C289.812 70.4141 289.547 70.0391 289.312 69.7734C289.094 69.5078 288.805 69.2109 288.445 68.8828C288.102 68.5547 287.758 68.3125 287.414 68.1562C287.07 67.9844 286.672 67.8438 286.219 67.7344C285.781 67.6094 285.305 67.5469 284.789 67.5469H278.109C278.109 70.0312 278.195 75.0391 278.367 82.5703H285.844C288.156 82.4141 290.211 82.1016 292.008 81.6328C293.82 81.1641 295.328 80.5625 296.531 79.8281C297.75 79.0938 298.758 78.3125 299.555 77.4844C300.352 76.6562 301.031 75.7109 301.594 74.6484C302.016 74.8047 302.289 75.0078 302.414 75.2578C302.336 75.4141 302.133 75.7891 301.805 76.3828C301.477 76.9766 301.258 77.3828 301.148 77.6016C301.039 77.8047 300.852 78.1719 300.586 78.7031C300.336 79.2188 300.148 79.6406 300.023 79.9688C299.898 80.2812 299.75 80.6797 299.578 81.1641C299.422 81.6484 299.289 82.125 299.18 82.5938C299.086 83.0469 299.008 83.5156 298.945 84H278.367C274.133 84 270.5 84.0469 267.469 84.1406C267.406 83.9531 267.375 83.7969 267.375 83.6719C267.375 83.5625 267.406 83.3516 267.469 83.0391C268.188 82.9766 268.766 82.9141 269.203 82.8516C269.656 82.7734 270.203 82.6562 270.844 82.5C271.5 82.3438 272 82.125 272.344 81.8438C272.688 81.5469 272.867 81.1953 272.883 80.7891C273.07 75.8984 273.164 70.9688 273.164 66C273.164 60.9375 273.086 56.5703 272.93 52.8984C272.914 52.4922 272.734 52.1484 272.391 51.8672C272.047 51.5703 271.547 51.3438 270.891 51.1875C270.25 51.0312 269.703 50.9219 269.25 50.8594C268.812 50.7812 268.234 50.7109 267.516 50.6484C267.453 50.3672 267.422 50.1719 267.422 50.0625C267.422 49.9688 267.453 49.7969 267.516 49.5469Z" fill="#EEDBB3"/>
<path d="M327.75 59.4609C327.156 56.6016 326.062 54.3828 324.469 52.8047C322.891 51.2266 320.992 50.4375 318.773 50.4375C316.602 50.4375 314.914 50.9531 313.711 51.9844C312.523 53.0156 311.93 54.3906 311.93 56.1094C311.93 57.0625 312.016 57.8516 312.188 58.4766C312.359 59.1016 312.711 59.7109 313.242 60.3047C313.773 60.8828 314.547 61.3984 315.562 61.8516C316.578 62.2891 317.906 62.7109 319.547 63.1172C320.438 63.3359 321.211 63.5391 321.867 63.7266C322.539 63.9141 323.273 64.1719 324.07 64.5C324.883 64.8281 325.578 65.1797 326.156 65.5547C326.75 65.9297 327.336 66.3984 327.914 66.9609C328.508 67.5078 328.984 68.1172 329.344 68.7891C329.719 69.4609 330.016 70.2578 330.234 71.1797C330.469 72.0859 330.586 73.0781 330.586 74.1562C330.586 75.5938 330.32 76.9219 329.789 78.1406C329.258 79.3438 328.562 80.3594 327.703 81.1875C326.844 82.0156 325.852 82.7188 324.727 83.2969C323.602 83.875 322.461 84.2969 321.305 84.5625C320.148 84.8281 319 84.9609 317.859 84.9609C314.391 84.9609 310.695 84.0625 306.773 82.2656C306.852 80.5781 306.891 79.5391 306.891 79.1484C306.891 76.6016 306.68 74.0625 306.258 71.5312C306.43 71.4219 306.602 71.3672 306.773 71.3672C306.992 71.3672 307.188 71.4219 307.359 71.5312C307.688 73.5469 308.227 75.3281 308.977 76.875C309.742 78.4219 310.617 79.6484 311.602 80.5547C312.586 81.4453 313.602 82.1172 314.648 82.5703C315.711 83.0078 316.781 83.2266 317.859 83.2266C320.312 83.2266 322.195 82.5938 323.508 81.3281C324.836 80.0469 325.5 78.3594 325.5 76.2656C325.5 74.1562 325.008 72.5703 324.023 71.5078C323.055 70.4297 321.195 69.5547 318.445 68.8828C315.008 68.0234 312.32 66.7578 310.383 65.0859C308.461 63.3984 307.5 61.1719 307.5 58.4062C307.5 56.9531 307.734 55.6562 308.203 54.5156C308.688 53.3594 309.305 52.4375 310.055 51.75C310.82 51.0469 311.711 50.4688 312.727 50.0156C313.742 49.5469 314.742 49.2266 315.727 49.0547C316.727 48.8672 317.742 48.7734 318.773 48.7734C321.867 48.7734 325.086 49.4922 328.43 50.9297C328.336 51.8516 328.289 52.8125 328.289 53.8125C328.289 56.1562 328.477 58.0391 328.852 59.4609C328.648 59.5391 328.477 59.5781 328.336 59.5781C328.18 59.5781 327.984 59.5391 327.75 59.4609Z" fill="#EEDBB3"/>
</svg>
